<svg xmlns="http://www.w3.org/2000/svg"
     width="260.000000pt" height="260.000000pt" viewBox="0 0 260.000000 260.000000"
     preserveAspectRatio="xMidYMid meet">
    <g transform="translate(0.000000,260.000000) scale(0.100000,-0.100000)"
       fill="#A18BD0" stroke="none">
        <path d="M1292 2498 c2 -7 -2 -12 -9 -11 -8 2 -10 -4 -6 -14 5 -12 3 -14 -8
-8 -11 7 -12 6 -2 -7 7 -8 10 -18 6 -21 -6 -7 12 -11 30 -8 5 1 5 -4 1 -11 -5
-7 4 -5 19 5 25 16 31 15 28 -5 -2 -12 17 -10 24 2 4 6 13 7 23 1 9 -5 35 -7
57 -6 22 1 34 0 28 -2 -7 -3 -13 -9 -13 -14 0 -6 6 -7 13 -2 18 11 57 11 50 0
-3 -6 -2 -7 3 -4 5 3 10 -3 10 -14 0 -19 -1 -19 -13 -3 -7 10 -13 14 -13 9 0
-5 -5 -4 -11 2 -9 9 -15 8 -26 -3 -16 -16 -35 -10 -27 9 3 8 -4 13 -16 13 -11
0 -23 -9 -26 -19 -6 -18 -7 -18 -21 2 -8 12 -19 19 -24 15 -5 -3 -16 0 -24 6
-12 10 -15 9 -15 -3 0 -8 6 -17 13 -20 6 -3 2 -4 -9 -4 -15 1 -20 6 -16 17 4
12 3 13 -9 4 -8 -6 -22 -14 -31 -17 -13 -5 -15 -2 -11 11 6 15 4 15 -10 4 -9
-8 -21 -11 -26 -8 -5 4 -15 -2 -21 -11 -11 -17 -11 -17 -6 0 5 16 -8 25 -17
10 -2 -5 -2 -2 -1 4 2 8 -5 12 -16 10 -25 -4 -38 -17 -17 -17 10 0 17 -4 17
-8 0 -5 -7 -9 -15 -9 -14 0 -19 10 -16 30 3 17 -28 5 -34 -14 -6 -17 -9 -19
-16 -8 -7 11 -13 11 -38 -4 -30 -17 -30 -17 -24 0 6 16 5 16 -10 4 -9 -7 -15
-16 -13 -20 3 -4 0 -13 -6 -21 -8 -12 -9 -12 -4 2 3 10 1 20 -4 23 -4 3 -10
-1 -13 -7 -3 -10 -8 -9 -22 2 -10 8 -21 14 -24 12 -3 -2 -7 2 -9 8 -4 11 -2
11 39 -12 4 -1 16 6 28 16 12 11 21 15 21 10 0 -5 5 -2 10 6 6 9 10 10 10 3 0
-11 30 -10 49 1 5 4 11 1 13 -6 3 -8 6 -7 10 3 5 13 -1 15 -30 13 -22 -1 -44
4 -54 13 -12 11 -18 11 -24 2 -4 -7 -3 -10 4 -5 6 3 13 2 16 -3 3 -5 -1 -11
-9 -15 -8 -3 -17 -1 -20 4 -4 6 -12 10 -18 10 -7 0 -6 -4 3 -10 8 -5 13 -10
10 -11 -3 0 -14 -2 -24 -4 -11 -2 -25 -1 -30 3 -6 3 -17 7 -25 9 -10 1 -11 -1
-2 -10 17 -17 13 -31 -4 -17 -12 10 -20 9 -39 -4 -18 -11 -26 -12 -29 -3 -4 9
-6 9 -6 0 -1 -7 -8 -10 -16 -7 -8 4 -15 1 -15 -4 0 -6 9 -9 21 -7 12 2 19 0
17 -7 -5 -14 -36 -19 -44 -7 -3 5 -10 7 -15 3 -6 -4 -4 -13 6 -24 22 -24 1
-73 -28 -64 -16 5 -17 3 -8 -14 16 -31 13 -41 -4 -12 -9 15 -14 19 -15 10 0
-13 -1 -13 -10 0 -5 8 -10 13 -11 10 0 -3 -2 -13 -4 -24 -2 -10 -9 -24 -15
-30 -8 -8 -10 -6 -5 9 6 19 6 20 -9 1 -8 -10 -18 -24 -21 -30 -3 -8 -7 -7 -11
2 -3 6 -10 10 -15 6 -5 -3 -5 -13 1 -24 9 -16 8 -18 -6 -13 -13 5 -15 3 -9 -8
6 -11 5 -12 -6 -1 -20 18 -33 15 -18 -5 13 -16 12 -17 -3 -5 -21 17 -13 42 12
37 18 -4 21 10 7 33 -5 7 -4 12 2 12 6 0 11 -5 11 -12 0 -6 6 -4 13 7 9 11 19
15 27 10 9 -6 11 -4 5 5 -6 9 -4 11 5 5 9 -6 11 -4 5 5 -6 9 -4 11 5 5 9 -6
11 -4 5 5 -6 9 -4 11 5 5 9 -6 11 -4 5 5 -6 9 -4 11 5 5 9 -6 11 -4 5 6 -7 11
-5 11 10 -1 15 -12 17 -12 10 -1 -5 10 -4 12 3 7 8 -5 10 -1 6 11 -4 14 -4 15
4 4 8 -11 10 -11 15 0 3 9 6 7 6 -6 1 -15 4 -16 13 -7 14 14 8 22 -26 28 -17
3 -26 0 -26 -9 0 -7 -9 -13 -20 -14 -11 -1 -18 2 -15 8 4 5 1 9 -5 9 -6 0 -8
5 -4 12 4 7 3 8 -4 4 -9 -5 -9 -13 -1 -28 10 -19 8 -25 -17 -44 -28 -23 -48
-24 -26 -2 7 7 12 17 12 22 0 6 -7 0 -16 -12 -8 -12 -20 -19 -26 -16 -7 4 -8
2 -4 -4 7 -12 -1 -15 -36 -15 -10 0 -18 -4 -18 -9 0 -6 7 -8 15 -4 17 6 19 -2
6 -23 -6 -9 -6 -22 1 -34 7 -14 7 -22 -3 -28 -16 -9 -32 -1 -23 12 3 5 10 6
16 3 7 -4 8 -2 4 5 -4 6 -12 9 -17 6 -12 -8 -11 2 2 28 7 12 8 19 4 15 -5 -4
-15 -2 -24 5 -14 10 -14 10 -3 -4 14 -19 6 -52 -11 -42 -6 4 -1 -7 10 -23 17
-24 28 -30 52 -28 17 1 29 -2 26 -6 -3 -4 -14 -6 -25 -3 -16 4 -19 2 -13 -13
4 -14 0 -12 -15 6 -12 14 -21 20 -22 15 0 -6 6 -17 13 -24 7 -8 7 -11 1 -8 -7
4 -19 -4 -28 -18 -16 -24 -13 -30 9 -25 6 1 6 -2 2 -6 -11 -11 -38 -14 -31 -3
3 5 1 9 -4 9 -16 0 -21 -13 -12 -31 7 -12 7 -20 0 -24 -6 -4 -10 -3 -9 2 5 29
-5 34 -17 8 -15 -29 -15 -29 -9 -3 4 23 2 26 -15 23 -12 -2 -18 0 -15 6 4 5
11 6 17 3 7 -5 8 -2 3 6 -6 9 -4 11 5 5 9 -5 11 -4 6 4 -4 6 -12 9 -17 5 -5
-3 -16 0 -24 6 -11 9 -15 9 -15 1 0 -6 5 -11 10 -11 6 0 10 -4 10 -10 0 -5 -8
-7 -17 -4 -15 5 -15 4 -4 -4 18 -13 24 -45 8 -39 -7 3 -11 9 -10 15 1 5 -4 13
-13 16 -12 5 -13 2 -2 -17 7 -12 11 -26 10 -30 -1 -5 3 -5 10 -1 9 6 9 3 -1
-9 -7 -9 -9 -17 -3 -17 14 0 33 25 25 33 -3 4 -1 7 5 7 17 0 15 -8 -7 -36 -20
-25 -32 -20 -38 15 -1 8 -10 21 -19 30 -17 15 -17 15 -1 -11 10 -16 15 -28 12
-28 -3 0 -1 -10 6 -21 8 -17 8 -23 -2 -29 -11 -8 -16 -24 -21 -72 -1 -9 -4
-15 -7 -13 -2 3 -12 -2 -21 -10 -14 -12 -20 -12 -43 0 l-27 14 16 -25 c16 -23
32 -35 18 -13 -5 8 -1 8 14 0 16 -8 21 -7 26 4 3 8 10 15 16 15 6 0 4 -7 -4
-16 -9 -8 -14 -19 -11 -24 3 -5 1 -12 -5 -15 -6 -4 -9 -1 -8 6 2 6 -2 13 -8
16 -14 5 -13 -29 1 -39 6 -5 3 -8 -7 -8 -9 0 -18 5 -20 12 -3 8 -6 9 -11 1 -4
-6 3 -24 15 -39 16 -21 17 -25 5 -15 -17 13 -18 12 -15 -15 2 -16 -2 -28 -8
-27 -5 1 -16 -8 -23 -19 -11 -18 -11 -20 3 -15 8 3 18 2 21 -4 4 -5 11 -7 16
-4 5 4 9 1 9 -4 0 -15 -13 -14 -29 2 -11 10 -13 9 -8 -5 4 -10 3 -17 -1 -17
-23 4 -24 -4 -2 -15 l25 -14 -26 1 c-25 2 -32 17 -16 33 4 4 2 13 -4 20 -7 8
-7 14 1 19 5 3 10 12 10 18 0 8 -3 8 -9 -1 -7 -11 -11 -11 -24 2 -13 13 -16
14 -21 1 -3 -8 -2 -14 2 -14 20 3 28 -3 29 -23 2 -22 1 -22 -13 -4 -8 11 -14
16 -14 10 0 -5 7 -17 14 -27 8 -10 13 -33 11 -50 -4 -31 -4 -32 9 -8 8 15 16
20 20 12 4 -6 2 -11 -4 -11 -6 0 -9 -4 -6 -9 3 -5 -1 -11 -9 -15 -16 -6 -29 9
-20 24 3 5 0 21 -8 36 -12 22 -15 24 -20 10 -4 -9 -3 -15 2 -12 5 3 11 -1 14
-9 4 -9 1 -12 -9 -8 -7 3 -14 0 -14 -7 0 -6 5 -8 10 -5 6 3 10 -1 10 -10 0 -9
-4 -13 -10 -10 -5 3 -10 1 -10 -5 0 -7 7 -10 15 -6 11 4 15 -1 15 -17 0 -12
-4 -17 -8 -12 -4 6 -16 11 -27 13 -17 2 -17 0 4 -11 14 -9 19 -17 13 -21 -6
-3 -13 -2 -17 4 -3 5 -10 10 -15 10 -9 0 46 -59 58 -60 3 -1 8 4 11 11 2 6 -1
9 -7 5 -6 -3 -14 -1 -18 5 -5 8 -3 9 7 4 11 -7 11 -5 -1 10 -9 12 -10 16 -2
11 7 -4 12 -4 11 1 -3 20 2 31 18 37 16 6 16 6 0 -12 -16 -18 -14 -32 5 -32 5
0 6 6 2 13 -4 6 -3 8 1 4 16 -14 14 -36 -3 -30 -10 4 -13 2 -8 -6 4 -6 2 -18
-4 -26 -10 -12 -9 -16 4 -21 15 -6 15 -7 0 -19 -12 -8 -14 -14 -6 -19 7 -4 12
-15 11 -24 0 -14 -2 -13 -8 3 -5 11 -13 21 -20 21 -6 1 -16 2 -22 3 -8 1 -9 5
0 14 6 8 7 18 3 22 -4 5 -2 5 5 1 7 -4 9 -14 6 -24 -6 -15 -5 -15 11 -3 17 14
17 15 0 28 -24 17 -37 16 -30 -2 3 -8 -2 -19 -11 -24 -14 -7 -13 -10 6 -16 11
-3 19 -11 15 -16 -3 -5 -10 -7 -15 -4 -5 4 -9 2 -9 -4 0 -5 6 -12 13 -15 9 -5
9 -7 0 -12 -14 -6 -18 -25 -5 -23 23 4 24 -4 2 -16 -14 -8 -19 -14 -12 -15 10
0 10 -5 2 -22 -10 -21 -10 -22 3 -5 9 10 18 14 21 8 3 -5 -6 -19 -21 -31 -20
-15 -22 -18 -6 -11 14 7 24 8 28 1 3 -5 1 -10 -4 -10 -6 0 -11 -5 -11 -11 0
-5 5 -7 12 -3 7 5 9 2 5 -9 -4 -11 -2 -14 9 -10 11 4 12 9 3 19 -8 10 -8 14 0
14 6 0 9 10 7 23 -3 12 -5 22 -6 22 -1 0 -3 9 -4 21 -2 14 4 20 18 21 12 1 15
-1 9 -4 -7 -3 -13 -9 -13 -14 0 -6 8 -6 19 1 16 8 19 7 16 -8 -1 -9 2 -23 8
-30 7 -9 6 -17 -2 -25 -10 -9 -11 -8 -6 4 4 10 1 20 -4 24 -6 3 -9 11 -6 16 4
5 2 9 -4 9 -15 0 -23 -18 -10 -25 5 -4 8 -13 5 -21 -3 -7 2 -17 10 -22 12 -7
10 -11 -11 -20 -17 -8 -25 -18 -22 -26 3 -8 -1 -17 -10 -20 -11 -5 -14 -2 -9
11 6 14 4 15 -5 6 -14 -14 -3 -34 15 -27 8 3 12 -5 12 -26 0 -16 -3 -30 -8
-30 -4 0 -8 -5 -8 -12 0 -9 3 -9 12 0 7 7 17 12 23 12 5 -1 -1 -10 -14 -20
-13 -11 -19 -20 -14 -20 5 0 14 5 21 12 9 9 12 9 12 0 0 -6 -8 -16 -17 -21
-10 -6 -13 -11 -6 -11 6 0 15 5 18 10 3 6 11 10 17 10 6 0 1 -12 -13 -27 -13
-14 -19 -23 -12 -19 7 3 14 -2 18 -13 3 -11 13 -22 23 -26 15 -5 14 -9 -8 -26
-20 -17 -21 -18 -4 -10 17 8 25 7 35 -6 12 -14 12 -16 -3 -11 -9 4 -24 0 -35
-8 -17 -15 -17 -15 1 -6 15 8 25 4 45 -15 24 -23 25 -25 8 -37 -16 -13 -16
-14 -1 -20 9 -4 19 -4 22 -1 3 3 0 5 -7 5 -7 0 -9 5 -6 10 4 6 10 8 15 5 5 -3
11 -1 15 4 3 6 13 7 22 4 11 -4 14 -3 9 5 -4 7 -2 12 3 12 11 0 14 -11 9 -27
-2 -5 -9 -6 -17 -5 -7 2 -10 -1 -7 -6 3 -6 -6 -24 -20 -41 -16 -20 -20 -29
-10 -25 9 3 16 11 16 18 0 8 2 8 8 -1 12 -19 34 -19 37 -1 2 10 -1 20 -6 24
-5 3 -9 -2 -9 -11 0 -9 -5 -13 -10 -10 -17 10 8 35 27 28 11 -4 14 -2 9 5 -4
7 -2 12 4 12 6 0 10 -6 8 -12 -1 -7 6 -28 15 -46 10 -18 15 -37 12 -42 -7 -11
30 -32 40 -22 5 4 5 2 2 -4 -4 -7 0 -14 8 -18 9 -3 12 -12 8 -22 -4 -11 -3
-15 4 -11 6 4 20 -4 31 -18 14 -17 22 -21 25 -13 2 7 2 2 0 -11 -4 -22 -3 -23
14 -10 16 12 16 11 -1 -9 -18 -21 -11 -32 9 -14 6 5 21 3 35 -4 15 -8 19 -14
10 -14 -9 0 -21 5 -27 11 -7 7 -13 7 -17 1 -3 -6 3 -13 14 -17 11 -3 20 -11
20 -16 0 -5 -10 -3 -22 5 -20 13 -26 13 -42 0 -11 -8 -15 -14 -10 -14 6 0 15
5 22 12 7 7 12 8 12 2 0 -6 -5 -15 -12 -22 -8 -8 -8 -12 -1 -12 6 0 14 7 17
16 6 16 26 11 26 -7 0 -6 -5 -7 -12 -3 -7 4 -8 3 -4 -4 4 -7 1 -12 -8 -12 -20
0 -29 -17 -14 -26 7 -4 10 -4 6 1 -4 4 4 14 18 22 31 16 44 17 44 3 0 -5 -6
-10 -14 -10 -8 0 -18 -5 -22 -12 -5 -8 -2 -9 9 -5 11 4 22 -2 32 -16 8 -12 15
-16 15 -10 0 7 -4 15 -10 18 -5 3 -10 12 -10 18 0 7 14 -4 31 -23 17 -19 28
-29 24 -22 -7 14 11 17 20 3 3 -6 -3 -14 -12 -20 -15 -8 -11 -10 15 -7 40 4
74 -3 67 -14 -3 -5 -13 -6 -23 -3 -25 6 -44 -18 -30 -37 8 -12 9 -12 4 3 -8
26 18 32 49 11 14 -9 25 -13 24 -8 -3 20 2 24 14 12 10 -9 11 -15 3 -24 -6 -7
-14 -10 -18 -8 -9 6 -4 -24 7 -33 4 -4 5 -3 2 3 -4 6 5 22 18 34 24 22 37 16
14 -7 -8 -8 -7 -13 2 -18 7 -5 10 -4 5 3 -3 6 -2 13 4 17 5 3 10 -2 11 -12 0
-16 1 -16 8 2 8 19 8 19 18 0 6 -11 8 -26 5 -34 -4 -12 -3 -12 11 0 8 8 11 16
6 17 -5 2 -9 8 -9 13 0 6 7 6 19 0 10 -6 21 -7 25 -4 3 3 6 1 6 -5 0 -7 -4
-12 -10 -12 -5 0 -10 -4 -10 -9 0 -7 16 -8 54 -2 4 0 6 8 2 16 -3 8 0 15 6 15
7 0 6 5 -2 15 -11 13 -10 14 4 9 16 -6 16 -28 0 -68 -5 -14 -4 -17 4 -12 7 4
12 14 12 23 0 11 5 9 21 -8 11 -13 17 -18 13 -10 -5 11 -3 13 9 8 9 -3 19 -1
23 5 5 7 2 8 -6 3 -9 -5 -11 -4 -6 4 8 12 -15 11 -24 -1 -3 -4 -10 0 -16 10
-8 13 -6 21 8 34 10 10 18 14 18 9 0 -6 -4 -13 -10 -16 -6 -3 -10 -10 -10 -16
0 -5 9 -4 19 3 11 7 17 16 14 22 -3 5 -1 6 5 2 6 -4 8 -14 5 -22 -5 -14 -3
-14 15 -3 17 11 24 11 34 1 9 -9 9 -12 0 -12 -7 0 -12 -5 -12 -11 0 -5 5 -7
10 -4 6 4 9 3 8 -2 -2 -4 6 -19 16 -33 12 -16 16 -19 12 -7 -4 13 -2 17 6 14
7 -2 12 -13 10 -23 -2 -16 -1 -17 7 -4 10 14 15 7 12 -13 -1 -5 3 -5 9 -2 8 5
6 13 -6 26 -21 23 -12 24 21 3 14 -9 25 -13 25 -10 0 4 9 2 19 -4 14 -7 22 -7
26 0 5 8 12 7 23 -2 15 -11 15 -11 6 2 -6 8 -10 23 -9 33 2 9 -1 17 -6 17 -5
0 -9 -4 -9 -9 0 -6 -9 -8 -20 -6 -12 2 -23 -2 -26 -10 -3 -8 -13 -11 -21 -8
-12 5 -9 9 12 20 15 8 25 17 22 20 -3 2 -17 -3 -31 -12 -24 -16 -26 -16 -20
-1 4 9 9 14 12 12 3 -3 11 -1 19 5 10 9 17 8 28 -1 12 -10 18 -10 30 0 15 12
20 4 16 -22 0 -5 3 -8 7 -8 8 0 10 -6 14 -49 1 -11 6 -17 11 -14 4 2 5 14 1
26 -3 12 -3 19 1 15 3 -3 19 -2 35 2 22 6 32 4 46 -11 9 -10 24 -19 33 -18 12
0 10 3 -4 9 -23 9 -52 40 -38 40 5 0 14 -5 21 -12 9 -9 15 -9 24 0 17 17 28
15 28 -5 0 -15 1 -15 13 2 9 11 19 15 26 10 10 -6 11 -3 2 12 -6 11 -7 23 -4
27 3 3 1 6 -6 6 -7 0 -11 -7 -8 -14 4 -10 1 -13 -9 -9 -18 7 -18 19 2 27 8 3
13 10 9 15 -3 5 -1 13 5 16 6 4 10 3 9 -2 -4 -23 3 -30 29 -29 31 1 47 17 29
28 -9 6 -9 8 0 8 7 0 17 -9 23 -20 8 -15 8 -20 -1 -18 -6 2 -13 -5 -14 -15 -2
-9 0 -15 5 -12 5 3 10 -1 13 -7 2 -8 8 -9 13 -4 5 5 4 11 -4 13 -10 4 -10 8
-1 19 15 18 30 18 23 0 -3 -8 0 -17 6 -21 8 -5 5 -12 -7 -22 -16 -13 -16 -13
6 -3 17 9 20 15 12 23 -18 18 -13 31 6 16 11 -10 14 -10 9 -2 -4 8 -2 13 5 13
6 0 9 -8 6 -20 -3 -11 -1 -17 4 -14 6 3 9 15 7 26 -2 12 2 23 9 25 8 3 11 -3
8 -16 -2 -11 0 -23 5 -26 5 -3 7 3 5 15 -2 11 0 22 6 25 5 4 9 0 9 -7 1 -7 6
-3 13 10 7 12 16 20 20 16 4 -4 3 -12 -3 -18 -6 -8 -3 -12 10 -12 14 0 16 4 9
18 -14 26 -27 30 -38 11 -8 -14 -10 -15 -11 -3 0 13 -1 13 -10 0 -8 -12 -10
-12 -10 -1 0 11 -3 11 -15 1 -11 -9 -15 -9 -15 -1 0 7 -4 9 -10 6 -6 -4 -7 1
-3 11 4 11 8 13 11 6 2 -7 8 -12 13 -12 6 0 7 5 4 10 -3 6 -1 10 4 10 6 0 11
-5 11 -12 0 -6 3 -8 7 -4 4 4 8 15 8 24 0 9 7 17 15 17 8 0 14 -6 12 -13 -2
-13 14 -17 22 -4 7 11 -20 43 -29 34 -5 -4 -5 -1 -1 6 6 10 14 7 32 -13 27
-30 30 -38 13 -44 -7 -2 -9 1 -4 9 5 9 4 11 -3 6 -9 -5 -7 -14 5 -31 21 -28
30 -31 30 -10 0 8 -4 12 -9 9 -10 -6 -11 10 -1 19 3 4 12 2 20 -4 9 -9 13 -8
13 0 0 6 -4 11 -9 11 -5 0 -8 11 -6 25 1 16 -3 25 -12 25 -8 0 -11 -4 -8 -10
4 -6 -1 -7 -12 -3 -14 6 -13 9 12 19 17 7 34 10 38 7 4 -2 6 7 3 21 -3 14 -1
28 3 31 5 2 8 -3 8 -13 0 -34 3 -43 13 -37 5 3 7 12 4 19 -3 8 -1 17 5 21 7 4
9 -1 5 -12 -4 -12 0 -10 15 7 11 14 21 19 21 13 0 -7 5 -13 10 -13 12 0 9 22
-5 33 -6 5 -3 7 7 3 10 -3 22 2 27 12 6 9 11 13 11 7 1 -5 4 -3 8 5 6 14 9 14
24 -1 14 -15 14 -18 2 -23 -9 -3 -12 -1 -9 4 8 13 -1 13 -26 -1 -17 -9 -18
-13 -7 -27 11 -13 11 -14 -1 -7 -10 6 -12 4 -6 -5 5 -9 4 -11 -3 -6 -7 4 -12
2 -12 -5 0 -9 -3 -9 -14 0 -10 8 -16 9 -21 1 -7 -11 -7 -11 50 -15 22 -1 32 0
22 2 -9 3 -15 9 -12 14 4 5 15 5 27 -2 13 -7 18 -7 14 -1 -3 6 2 13 11 15 10
3 5 5 -11 4 -16 -1 -31 3 -33 9 -2 7 9 10 32 8 43 -3 71 27 54 58 -5 10 -15
16 -21 12 -5 -4 -6 -9 -2 -13 5 -3 10 -14 12 -24 3 -15 0 -17 -16 -8 -20 11
-36 40 -27 49 3 3 5 0 5 -7 0 -7 5 -9 10 -6 6 4 8 10 5 15 -3 5 -1 11 4 14 5
4 12 2 16 -4 3 -5 11 -10 17 -10 6 0 3 10 -8 23 -10 12 -12 16 -4 9 18 -16 38
-16 22 0 -7 7 -12 17 -12 22 0 6 5 3 11 -6 15 -26 32 -23 19 3 -7 11 -9 23 -6
27 3 3 6 0 6 -7 0 -7 5 -9 10 -6 6 4 8 11 5 16 -4 5 1 12 9 15 9 3 13 11 9 18
-3 6 -1 6 8 -1 20 -19 33 -16 18 4 -8 10 3 5 24 -11 35 -26 40 -27 53 -12 8 9
9 11 2 6 -7 -6 -17 -10 -23 -10 -5 1 1 9 14 20 12 11 28 17 34 13 6 -3 7 -1 3
5 -4 6 -14 8 -24 5 -10 -3 -5 6 13 23 16 16 34 28 40 26 5 -1 2 4 -7 11 -10 8
-15 17 -11 20 3 4 12 2 20 -5 10 -8 17 -8 26 1 9 10 9 11 -3 6 -11 -4 -15 2
-17 22 -1 24 1 25 11 12 10 -15 13 -15 26 -1 13 14 12 15 -2 10 -22 -9 -30 2
-13 18 8 8 11 22 8 32 -6 15 -5 15 10 3 9 -7 17 -12 18 -10 6 32 6 38 -3 33
-6 -4 -9 -1 -6 7 3 8 15 13 27 13 16 -1 19 2 11 11 -6 7 -7 15 -3 17 4 3 2 3
-5 2 -15 -4 -12 27 3 38 18 13 28 8 15 -7 -9 -10 -9 -15 -1 -15 10 0 13 7 10
26 0 4 5 11 13 16 9 6 6 7 -9 3 -18 -5 -23 -2 -23 11 0 14 -3 15 -12 6 -10
-10 -10 -15 0 -21 11 -7 10 -10 -3 -15 -9 -3 -13 -10 -10 -16 3 -5 1 -10 -4
-10 -6 0 -10 -6 -9 -12 2 -8 -5 -12 -17 -10 -20 3 -20 2 -1 -13 11 -8 14 -15
8 -15 -7 0 -11 -5 -10 -11 2 -6 -5 -13 -15 -14 -11 -2 -16 -1 -13 2 3 4 0 13
-7 22 -10 14 -10 14 5 3 11 -9 18 -10 23 -2 3 5 2 10 -4 10 -5 0 -9 9 -8 20 1
11 7 19 16 17 7 -1 16 4 18 11 3 7 -1 10 -10 6 -8 -3 -18 -1 -22 5 -3 7 0 8 9
5 9 -3 16 -1 16 5 0 6 -5 11 -11 11 -8 0 -9 4 0 13 6 8 8 17 4 20 -3 4 -1 7 6
7 8 0 11 -7 7 -15 -6 -18 3 -47 13 -40 8 4 7 39 -2 78 -2 10 -10 23 -18 28 -8
5 -9 9 -3 9 16 0 35 -25 26 -35 -4 -4 0 -6 8 -3 19 6 20 29 0 46 -13 11 -12
11 7 3 29 -14 28 -14 30 10 2 16 -1 18 -12 9 -10 -8 -15 -8 -21 1 -4 7 -3 9 4
5 6 -3 17 3 25 15 9 13 17 16 22 10 3 -6 1 -11 -6 -11 -8 0 -8 -4 1 -15 10
-12 10 -15 0 -15 -8 0 -10 -3 -7 -6 3 -4 1 -16 -5 -28 -7 -11 -11 -25 -10 -29
1 -5 -2 -6 -7 -3 -5 4 -12 2 -16 -4 -3 -5 1 -10 9 -10 9 0 16 -4 16 -8 0 -4
10 -8 23 -9 22 -2 22 -2 -2 11 -17 9 -20 15 -11 21 7 4 16 2 21 -6 6 -10 9
-11 9 -1 0 21 -4 27 -17 24 -8 -2 -10 3 -7 13 3 8 11 12 17 8 6 -4 7 -1 3 6
-5 7 0 22 11 34 15 19 16 20 1 8 -10 -7 -18 -9 -18 -3 0 15 26 33 35 24 5 -4
5 -2 2 5 -4 6 -1 14 5 16 10 4 10 6 1 6 -7 1 -17 10 -23 21 -9 16 -8 18 5 14
18 -7 20 7 3 24 -7 7 -8 12 -2 12 6 0 14 -3 18 -7 3 -4 14 -8 22 -9 9 -1 13 0
10 3 -3 4 0 13 6 22 9 11 6 10 -9 -2 -22 -19 -41 -8 -27 15 4 6 3 8 -3 5 -6
-4 -14 0 -17 9 -5 12 -1 14 15 9 14 -5 19 -3 15 3 -4 6 2 15 11 21 28 16 9 13
-23 -4 -32 -16 -57 -4 -35 18 10 10 11 9 8 -3 -2 -8 -2 -12 0 -7 3 4 8 5 13 2
4 -3 13 2 20 10 7 8 8 15 3 15 -5 0 -9 14 -9 30 0 17 3 30 8 30 4 0 8 5 8 11
0 8 -4 9 -13 0 -8 -6 -17 -8 -20 -4 -4 3 1 11 9 18 15 11 15 12 0 12 -9 0 -17
-4 -17 -9 -1 -4 -2 -14 -3 -20 -1 -7 3 -19 8 -27 9 -12 8 -13 -3 -6 -10 6 -12
4 -6 -6 4 -8 -1 -6 -11 5 -14 13 -15 20 -6 23 6 3 9 9 6 14 -3 6 -11 5 -20 -2
-10 -8 -14 -8 -14 0 0 10 13 15 33 12 14 -2 7 20 -8 25 -8 4 -15 10 -15 16 0
5 5 6 10 3 6 -3 10 -3 10 0 0 9 -27 35 -32 30 -2 -2 -4 5 -4 15 0 17 3 16 23
-8 12 -15 20 -33 18 -40 -3 -8 0 -10 7 -6 7 5 8 3 3 -5 -6 -10 -3 -11 16 -1
32 17 32 17 14 24 -9 3 -13 2 -10 -4 3 -6 2 -10 -3 -10 -11 0 -36 51 -33 68 1
7 -2 12 -6 11 -20 -3 -34 2 -28 11 3 6 2 10 -4 10 -5 0 -12 -6 -14 -12 -4 -10
-6 -10 -6 -1 -1 19 21 27 33 12 13 -17 36 -23 36 -9 0 14 -59 42 -72 34 -6 -4
-8 -3 -5 3 4 5 21 10 39 11 19 0 27 -2 19 -7 -9 -6 -3 -12 18 -21 17 -7 31
-20 32 -29 0 -9 3 -11 5 -5 2 6 -2 26 -10 45 -9 19 -15 26 -16 17 0 -10 -4
-18 -9 -18 -8 0 -8 21 -1 40 1 3 2 8 1 13 -2 12 17 8 22 -5 4 -10 6 -10 6 -1
1 19 -19 26 -36 11 -9 -7 -18 -11 -20 -10 -3 2 -8 0 -11 -4 -4 -4 -2 -4 5 0 6
3 14 3 17 -2 3 -5 -3 -9 -12 -9 -17 0 -32 14 -32 32 0 6 5 3 10 -5 5 -8 10
-13 11 -10 0 3 3 16 5 30 4 19 2 22 -7 13 -17 -17 -55 3 -40 21 6 7 8 16 4 19
-3 4 -1 7 7 7 9 0 10 3 1 13 -6 8 -7 18 -3 22 4 5 -2 5 -13 2 -17 -6 -18 -5
-4 5 9 7 14 20 12 28 -4 13 -3 13 7 0 10 -13 11 -13 6 2 -3 10 -1 20 4 23 20
12 9 34 -27 57 -21 12 -43 22 -49 20 -6 -1 -16 9 -24 22 -8 16 -18 23 -29 19
-13 -4 -13 -3 -2 5 20 14 46 7 43 -11 -1 -8 2 -18 8 -22 5 -3 10 0 10 7 0 8 5
6 11 -4 11 -20 29 -24 29 -7 0 5 -4 7 -10 4 -5 -3 -10 -2 -10 4 0 5 9 13 21
16 11 4 18 9 16 12 -3 2 -14 0 -25 -6 -28 -15 -50 10 -26 30 14 12 14 14 -2
26 -12 9 -21 9 -30 3 -8 -8 -13 -6 -18 5 -3 9 -2 13 3 10 5 -3 13 0 17 6 5 8
3 9 -6 4 -10 -6 -12 -4 -6 11 4 10 4 15 0 12 -4 -4 -15 -3 -26 3 -15 8 -17 13
-7 25 8 10 8 14 0 14 -6 0 -11 -4 -11 -10 0 -19 -16 -10 -17 9 -1 14 3 18 15
14 9 -3 -4 10 -31 27 -40 28 -45 35 -35 48 10 12 10 14 1 8 -8 -4 -13 -2 -13
6 0 9 -3 9 -10 -2 -9 -14 -14 -7 -11 13 1 5 -2 6 -6 4 -5 -3 -14 1 -21 9 -7 8
-9 14 -4 14 5 0 9 6 9 13 0 8 -6 14 -12 14 -6 0 -11 -10 -10 -21 1 -12 -2 -29
-7 -40 -8 -14 -7 -17 4 -13 7 2 12 10 10 16 -1 7 2 10 8 6 6 -3 7 -11 4 -17
-5 -7 -2 -8 6 -3 9 6 11 4 5 -5 -6 -9 -4 -11 5 -5 9 6 11 4 5 -5 -6 -9 -4 -11
5 -5 9 6 11 4 5 -5 -5 -9 -4 -11 3 -6 8 5 10 1 6 -11 -4 -13 -3 -15 4 -5 7 11
10 11 16 -3 3 -9 10 -14 15 -11 5 3 11 -1 14 -9 4 -10 1 -12 -11 -9 -9 3 -7
-1 6 -8 12 -8 20 -17 16 -21 -4 -3 1 -9 10 -13 18 -7 52 -64 39 -64 -5 0 -1
-4 7 -10 8 -5 19 -5 25 0 6 5 17 5 25 0 8 -6 13 -10 10 -11 -3 0 -14 -2 -25
-4 -11 -2 -30 3 -42 11 -25 16 -31 7 -10 -16 10 -12 9 -12 -6 -1 -11 9 -15 21
-11 34 4 13 2 17 -5 13 -10 -7 -13 -2 -15 33 -1 8 -7 16 -15 19 -8 3 -11 0 -7
-7 5 -7 1 -9 -9 -5 -14 6 -14 8 2 21 17 14 17 14 -2 8 -38 -13 -55 -14 -55 -4
0 5 6 9 13 8 25 -3 38 1 32 11 -3 5 -11 8 -18 6 -7 -1 -9 -1 -5 1 11 6 -20 48
-35 48 -6 1 -16 -4 -20 -10 -5 -6 -7 -3 -4 7 6 16 -17 33 -33 23 -4 -3 -7 3
-6 13 0 9 7 21 14 25 19 13 14 37 -9 37 -11 0 -17 -5 -14 -10 4 -6 12 -8 18
-4 7 3 3 -2 -7 -10 -23 -19 -36 -20 -36 -5 0 5 5 7 10 4 6 -3 10 -2 10 4 0 5
-9 13 -20 16 -16 5 -19 12 -14 28 l6 22 -23 -21 c-16 -15 -30 -19 -43 -15 -17
7 -18 8 -3 14 10 4 17 2 17 -5 0 -15 13 -1 16 17 1 8 -2 17 -7 21 -5 3 -9 -1
-9 -8 0 -8 -5 -7 -17 4 -15 16 -17 16 -30 0 -12 -16 -13 -15 -6 2 5 15 3 17
-8 11 -8 -5 -5 1 5 13 21 24 32 29 20 10 -5 -7 -3 -8 6 -3 9 5 11 4 6 -3 -5
-8 -1 -10 11 -6 15 5 15 4 3 -5 -12 -8 -11 -10 8 -8 21 1 32 17 12 17 -6 0
-24 13 -42 30 -23 22 -34 27 -44 20 -8 -8 -14 -8 -19 0 -3 5 -2 10 3 10 5 0 9
7 9 16 0 15 -1 15 -13 0 -6 -10 -22 -18 -33 -19 -15 -1 -20 -6 -16 -17 3 -9
-1 -8 -10 4 -8 11 -15 16 -15 11 0 -4 -9 0 -19 9 -18 17 -20 17 -31 -1 -10
-16 -10 -16 -5 4 5 18 2 21 -15 18 -11 -2 -25 -7 -30 -10 -23 -14 -8 4 16 20
15 9 24 13 21 8 -4 -5 -1 -10 6 -10 7 0 19 -2 27 -4 8 -2 14 1 13 8 -2 7 4 10
12 6 13 -5 13 -7 -2 -19 -17 -13 -17 -14 0 -8 11 4 17 1 17 -7 0 -12 2 -12 9
0 5 8 16 11 27 7 18 -6 17 -5 0 9 -11 8 -24 15 -29 15 -4 0 -5 5 -1 12 4 7 3
8 -4 4 -6 -4 -25 0 -42 9 -17 9 -35 13 -40 10 -5 -3 -11 -1 -15 5 -3 5 -1 10
6 10 7 0 10 3 7 6 -4 3 -16 1 -27 -5 -17 -9 -24 -8 -39 7 -17 17 -20 17 -29 3
-8 -13 -12 -11 -26 14 -9 17 -16 23 -17 15 0 -9 5 -21 12 -28 8 -8 8 -12 1
-12 -15 0 -34 25 -26 34 4 4 -1 4 -11 0 -14 -5 -17 -4 -12 4 4 7 2 12 -4 12
-7 0 -9 -8 -5 -21 6 -18 5 -19 -14 -8 -15 10 -17 16 -9 26 6 8 8 16 4 20 -3 3
-6 1 -6 -5 0 -6 -8 -9 -17 -6 -15 5 -16 4 -3 -5 8 -6 13 -11 10 -12 -43 -8
-69 2 -37 14 9 4 9 6 -1 6 -7 1 -15 -6 -18 -14 -8 -21 -21 -19 -29 5 -5 16
-10 18 -25 10 -22 -12 -41 -10 -53 5 -5 6 -7 3 -3 -7 6 -21 -10 -34 -17 -14
-3 7 1 23 9 34 9 14 11 23 4 27 -6 4 -9 1 -8 -7z m38 -58 c0 -5 -5 -10 -11
-10 -5 0 -7 5 -4 10 3 6 8 10 11 10 2 0 4 -4 4 -10z m50 0 c0 -5 -4 -10 -9
-10 -6 0 -13 5 -16 10 -3 6 1 10 9 10 9 0 16 -4 16 -10z m273 -54 c4 4 12 2
19 -4 13 -11 18 -12 42 -12 8 0 17 -7 20 -16 6 -15 4 -15 -17 -1 -16 10 -28
12 -40 5 -9 -5 -17 -6 -17 -2 0 4 -7 -1 -15 -12 -15 -18 -15 -18 -13 0 2 10
-3 21 -10 23 -8 3 -10 -1 -5 -14 4 -11 -4 -6 -21 12 -24 27 -26 27 -21 8 4
-15 2 -23 -6 -23 -7 0 -9 3 -6 7 4 3 2 12 -4 20 -9 9 -8 13 0 14 26 3 30 4 36
11 4 4 17 0 29 -8 13 -8 26 -11 29 -8z m-270 -21 c-7 -21 -12 -19 -10 4 0 11
5 18 9 15 4 -3 5 -11 1 -19z m-485 -10 c2 -10 0 -15 -6 -11 -15 9 -41 -4 -36
-18 3 -7 -7 -18 -21 -26 -17 -9 -22 -17 -15 -24 5 -5 10 -14 10 -20 0 -5 -6
-1 -14 9 -8 11 -12 23 -9 28 2 4 -4 15 -14 25 -11 9 -14 14 -8 10 7 -4 15 -5
18 -1 4 3 7 1 7 -5 0 -7 8 -5 18 6 11 9 17 20 15 24 -4 9 29 28 42 24 6 -1 12
-11 13 -21z m229 12 c0 -8 -6 -14 -13 -14 -7 0 -10 6 -7 14 3 7 8 13 12 13 4
0 8 -6 8 -13z m-171 -35 c-3 -3 -12 0 -19 6 -8 7 -16 10 -19 7 -2 -3 -5 1 -5
9 0 12 4 12 24 -1 13 -9 21 -18 19 -21z m116 31 c-6 -2 -10 -9 -7 -13 3 -5 0
-12 -6 -16 -8 -4 -9 -3 -5 4 4 7 1 12 -6 12 -9 0 -9 3 2 10 8 5 20 9 25 9 6 0
4 -3 -3 -6z m198 -3 c0 -5 -2 -10 -4 -10 -3 0 -8 5 -11 10 -3 6 -1 10 4 10 6
0 11 -4 11 -10z m90 4 c0 -8 -19 -13 -24 -6 -3 5 1 9 9 9 8 0 15 -2 15 -3z
m160 -4 c12 -7 10 -9 -8 -7 -12 0 -22 5 -22 9 0 11 12 10 30 -2z m-490 -20 c0
-5 -5 -10 -11 -10 -5 0 -7 5 -4 10 3 6 8 10 11 10 2 0 4 -4 4 -10z m-140 -20
c0 -5 -4 -10 -10 -10 -5 0 -10 5 -10 10 0 6 5 10 10 10 6 0 10 -4 10 -10z m40
0 c0 -5 -7 -7 -15 -4 -8 4 -15 8 -15 10 0 2 7 4 15 4 8 0 15 -4 15 -10z m680
0 c0 -5 -4 -10 -10 -10 -5 0 -10 5 -10 10 0 6 5 10 10 10 6 0 10 -4 10 -10z
m-704 -30 c0 -12 -4 -16 -9 -11 -5 5 -6 14 -3 20 10 15 12 14 12 -9z m749 11
c-9 -8 -36 -10 -30 -2 2 4 11 8 20 8 8 0 13 -3 10 -6z m-788 -14 c0 -8 -6 -14
-14 -14 -17 0 -17 14 0 20 6 3 12 6 13 6 0 1 1 -5 1 -12z m987 -1 c5 13 9 14
21 4 13 -11 12 -15 -9 -31 -13 -11 -28 -19 -33 -19 -4 0 -1 5 7 10 10 6 11 10
3 10 -7 0 -13 7 -13 16 0 8 -5 12 -11 9 -6 -4 -8 -12 -6 -19 2 -6 -6 -12 -19
-12 -23 -2 -23 -2 4 23 23 22 28 23 38 8 11 -14 12 -14 18 1z m-89 -5 c3 -5 0
-13 -6 -17 -7 -4 -9 -3 -5 4 3 5 0 13 -6 15 -9 4 -10 6 -1 6 6 1 14 -3 18 -8z
m-960 -32 c-4 -5 -12 -9 -18 -8 -9 0 -8 2 1 6 6 2 9 10 6 15 -4 7 -2 8 5 4 6
-4 9 -12 6 -17z m1051 -31 c3 -4 -1 -5 -10 -4 -8 1 -18 5 -22 8 -3 4 1 5 10 4
8 -1 18 -5 22 -8z m-1126 -2 c0 -3 -4 -8 -10 -11 -5 -3 -10 -1 -10 4 0 6 5 11
10 11 6 0 10 -2 10 -4z m-142 -31 c-2 -5 -8 -10 -15 -11 -6 -1 -9 4 -6 12 6
16 27 15 21 -1z m92 -19 c0 -2 -7 -7 -16 -10 -8 -3 -12 -2 -9 4 6 10 25 14 25
6z m1300 -11 c0 -2 -9 -3 -19 -2 -11 0 -18 5 -15 9 4 6 34 0 34 -7z m-646 -74
c14 -15 15 -21 4 -27 -7 -4 -10 -3 -5 1 4 5 0 17 -10 27 -9 10 -14 18 -11 18
3 0 13 -9 22 -19z m-68 -3 c4 -6 3 -8 -4 -4 -6 3 -13 2 -17 -4 -3 -5 -1 -10 6
-10 7 0 10 -3 6 -6 -3 -3 -11 -3 -17 1 -8 5 -8 11 1 21 14 17 16 17 25 2z
m148 4 c3 -5 -1 -9 -9 -9 -8 0 -12 4 -9 9 3 4 7 8 9 8 2 0 6 -4 9 -8z m-59
-37 c15 18 15 17 0 -12 -9 -19 -11 -33 -5 -33 5 0 10 -5 10 -10 0 -7 -8 -7
-22 1 -22 11 -22 11 -5 -7 16 -17 20 -17 30 -4 13 17 31 20 43 8 4 -5 0 -8 -9
-8 -9 0 -18 -4 -21 -9 -3 -4 6 -6 19 -3 14 2 25 8 25 13 0 5 6 6 14 3 7 -3 21
2 30 11 17 18 22 40 6 30 -6 -3 -7 1 -4 10 5 13 10 10 25 -14 21 -35 33 -38
49 -13 11 16 11 16 6 0 -3 -10 -1 -20 4 -23 6 -4 10 -1 10 6 0 18 10 5 15 -19
2 -12 -1 -25 -7 -28 -7 -5 -8 -2 -3 6 6 9 4 11 -5 5 -9 -6 -11 -4 -5 5 5 8 4
11 -3 6 -6 -3 -14 -1 -17 5 -4 5 -14 8 -22 5 -8 -3 -11 -1 -8 4 4 6 -3 9 -17
7 -13 -2 -21 -8 -18 -13 2 -5 11 -8 18 -6 8 2 11 -1 8 -6 -8 -13 20 -23 42
-15 14 5 15 3 5 -8 -7 -7 -13 -17 -13 -23 0 -5 7 -1 16 10 15 19 15 18 11 -4
-3 -12 -1 -20 4 -16 5 3 9 11 9 17 0 7 10 13 21 14 21 2 21 2 -1 -23 -13 -13
-19 -24 -14 -24 5 0 15 9 22 20 7 11 17 20 23 20 7 0 7 -6 -2 -17 -10 -11 -10
-14 -1 -9 7 4 12 2 12 -5 0 -7 3 -9 7 -6 7 8 39 -34 35 -46 -1 -4 8 -1 21 8
13 8 26 13 29 9 3 -3 9 -1 12 5 4 6 -2 8 -15 6 -17 -4 -20 -2 -11 7 17 17 15
29 -3 22 -8 -3 -14 -9 -13 -12 2 -20 -3 -32 -12 -27 -6 4 -8 10 -6 14 3 4 1
13 -4 21 -10 17 5 50 23 49 9 0 9 -2 0 -6 -7 -2 -13 -9 -13 -14 0 -6 5 -7 12
-3 6 4 22 -7 38 -27 24 -29 30 -31 44 -20 9 8 16 9 16 3 0 -6 -9 -13 -19 -17
-11 -3 -19 -11 -17 -18 1 -7 1 -9 -1 -4 -3 4 -10 4 -15 1 -6 -4 -8 -2 -5 4 5
6 0 8 -13 5 -28 -8 -35 -22 -8 -16 22 4 22 3 -2 -11 -29 -17 -19 -22 12 -5 17
9 25 6 47 -15 15 -15 30 -23 34 -19 4 3 7 1 7 -5 0 -7 -8 -12 -17 -12 -15 0
-16 -2 -3 -10 10 -6 16 -6 18 0 2 6 8 7 13 4 6 -3 5 -12 -3 -22 -10 -12 -10
-14 0 -8 6 4 12 3 12 -3 0 -5 9 -13 21 -16 11 -4 18 -9 15 -13 -3 -3 1 -16 9
-28 8 -13 12 -31 9 -41 -3 -11 -2 -14 3 -8 12 15 45 12 51 -4 3 -8 0 -11 -7
-7 -6 4 -19 2 -28 -4 -15 -9 -14 -10 7 -5 23 6 23 5 8 -8 -10 -8 -18 -18 -18
-23 0 -4 5 -3 11 3 9 9 15 8 25 -2 19 -18 18 -27 -2 -23 -10 2 -18 -3 -20 -10
-1 -7 0 -8 3 -2 8 17 23 1 16 -18 -6 -16 -6 -16 11 1 17 17 36 15 36 -3 0 -5
-8 -7 -17 -4 -10 3 -7 -1 7 -9 25 -16 40 -14 40 4 0 6 -5 7 -12 3 -7 -4 -8 -3
-4 4 7 11 -27 36 -36 26 -3 -2 -4 7 -3 21 2 17 -1 23 -8 18 -7 -4 -5 2 3 12
12 15 12 17 1 10 -10 -5 -12 -4 -7 3 10 17 29 15 22 -3 -3 -8 3 -20 14 -28 11
-8 17 -17 13 -20 -3 -4 2 -16 12 -27 17 -19 17 -21 0 -40 -10 -11 -14 -20 -9
-20 13 1 45 26 39 32 -3 2 3 5 12 5 12 0 9 -6 -11 -21 -34 -26 -97 -83 -74
-67 10 7 18 8 22 2 3 -5 0 -12 -6 -15 -11 -5 -11 -7 0 -12 6 -3 10 -9 8 -13
-3 -4 3 -7 13 -7 10 0 18 6 18 12 0 7 -6 10 -13 7 -8 -3 -11 6 -10 26 0 17 4
31 9 31 4 0 5 -12 3 -26 l-5 -26 24 26 c26 28 35 32 35 16 0 -5 -7 -10 -15
-10 -16 0 -20 -12 -8 -23 3 -4 11 -2 18 3 8 7 12 5 12 -4 0 -8 -8 -13 -18 -11
-10 2 -21 0 -24 -6 -6 -9 9 -14 30 -9 6 1 7 -2 3 -6 -4 -4 -2 -14 4 -23 10
-12 8 -12 -8 2 -22 18 -39 23 -29 8 3 -5 1 -13 -5 -16 -6 -4 -10 -3 -9 2 3 20
-2 25 -16 13 -12 -10 -16 -9 -21 3 -7 20 -32 29 -40 15 -4 -7 -3 -8 4 -4 6 4
19 -5 28 -19 11 -18 19 -22 24 -15 6 9 9 9 15 1 4 -7 16 -9 28 -6 12 4 18 3
12 -2 -5 -4 -12 -17 -13 -27 -3 -18 -2 -19 15 -5 16 13 17 13 4 -3 -11 -14
-11 -18 -1 -18 19 0 6 -10 -18 -15 -12 -2 -25 1 -28 7 -4 7 -2 8 4 4 7 -4 10
1 7 14 -2 11 2 20 8 20 7 0 6 4 -3 10 -9 5 -19 5 -26 -1 -8 -7 -14 -6 -19 1
-3 5 -11 10 -16 10 -6 0 -3 -7 6 -16 15 -15 15 -18 -1 -35 -9 -10 -21 -16 -27
-12 -6 3 -7 1 -3 -6 6 -9 11 -9 22 0 15 12 16 10 16 -21 0 -31 -1 -33 -16 -21
-11 9 -16 9 -22 -1 -4 -7 -4 -10 1 -6 4 4 14 3 22 -3 15 -13 18 -33 3 -24 -5
3 -10 1 -10 -5 0 -7 6 -10 13 -7 6 2 11 12 11 21 -2 12 4 15 20 11 11 -2 15
-2 7 1 -11 5 -11 8 0 15 11 7 10 9 -3 9 -10 0 -18 4 -18 8 0 15 45 8 65 -11
20 -19 20 -19 -2 -8 -13 6 -24 7 -27 2 -4 -5 6 -14 21 -20 l28 -11 -30 6 -29
5 19 -22 c11 -12 14 -19 8 -15 -8 4 -14 2 -14 -6 -1 -7 -3 -20 -4 -28 -1 -8
-3 -21 -4 -28 0 -7 -5 -10 -11 -7 -5 3 -10 0 -10 -9 0 -8 5 -16 10 -18 6 -2 1
-9 -9 -15 -15 -9 -22 -10 -27 -1 -4 6 -3 8 3 5 6 -4 9 5 8 21 -1 15 3 36 9 47
5 11 9 24 8 29 -2 4 3 14 9 22 7 9 8 14 1 14 -11 0 -28 -38 -24 -52 1 -5 -3
-8 -9 -8 -5 0 -7 -4 -4 -10 3 -5 0 -10 -8 -10 -18 0 -30 -27 -16 -36 6 -3 8
-13 5 -21 -3 -8 -1 -11 4 -8 6 3 10 -1 10 -10 0 -9 4 -14 9 -11 20 13 21 -27
0 -42 -13 -9 -19 -21 -16 -33 7 -26 -2 -24 -12 3 -5 15 -3 30 6 45 9 14 11 23
4 28 -7 4 -11 -3 -11 -17 0 -16 -3 -19 -9 -10 -4 8 -7 28 -5 45 3 26 2 29 -7
14 -6 -9 -14 -15 -19 -12 -5 3 -11 1 -15 -4 -3 -6 4 -8 16 -6 16 3 19 0 15
-11 -3 -9 -3 -21 1 -27 13 -21 11 -33 -8 -45 -21 -13 -26 -3 -8 15 8 8 8 16 1
30 -10 17 -11 17 -12 -2 -2 -67 -12 -85 -25 -44 -4 11 -9 18 -12 15 -3 -3 2
-17 11 -31 17 -26 9 -34 -13 -13 -8 7 -6 1 4 -14 9 -15 14 -31 11 -36 -3 -5 1
-9 9 -9 17 0 19 9 6 22 -6 6 -4 17 5 29 10 14 14 16 14 5 0 -12 2 -12 9 1 6 8
7 18 5 22 -3 4 0 8 5 8 14 0 14 -6 1 -31 -9 -15 -7 -19 7 -19 15 0 16 -2 3
-10 -10 -6 -16 -6 -18 0 -2 6 -8 7 -13 4 -6 -3 -5 -11 2 -20 11 -13 2 -19 -23
-15 -5 0 -8 -4 -8 -10 0 -5 -5 -7 -10 -4 -6 4 -10 12 -9 18 4 31 -1 40 -14 28
-8 -6 -17 -8 -20 -4 -4 3 -7 1 -7 -6 0 -8 8 -10 23 -6 21 7 21 6 5 -11 -14
-14 -20 -15 -32 -4 -11 8 -16 9 -16 1 0 -6 4 -11 8 -11 5 0 8 -18 7 -40 -1
-22 2 -40 7 -40 4 0 8 -8 8 -17 0 -11 -3 -14 -8 -8 -4 6 -13 10 -19 9 -7 -1
-21 -2 -30 -3 -16 -1 -16 -3 -3 -12 12 -8 10 -9 -7 -4 -18 5 -22 3 -17 -9 3
-9 11 -13 17 -9 5 3 7 1 4 -5 -4 -5 -19 -8 -35 -6 -15 3 -36 6 -47 6 -11 1
-24 7 -28 12 -5 7 -7 5 -4 -4 2 -8 15 -15 28 -15 14 0 23 -5 21 -13 -1 -9 7
-11 28 -7 16 3 30 1 30 -4 0 -5 -8 -8 -17 -6 -28 4 -56 -14 -44 -29 7 -8 5
-12 -9 -12 -10 0 -16 4 -14 8 3 4 7 17 9 28 3 15 -2 20 -20 20 -13 0 -25 6
-28 13 -2 6 -4 -2 -3 -20 1 -17 5 -35 10 -40 4 -4 6 -1 5 7 -2 8 1 16 6 17 6
0 8 -4 6 -10 -2 -7 -3 -20 -3 -30 0 -9 -4 -17 -9 -17 -6 0 -8 4 -4 9 3 5 2 12
-3 15 -12 7 -63 -29 -55 -40 5 -5 -2 -1 -14 10 -12 10 -19 24 -16 33 4 10 8
11 13 3 5 -8 9 -7 14 5 3 9 3 21 0 27 -4 6 1 8 15 3 11 -3 21 -2 21 2 0 5 -18
9 -40 9 -22 0 -40 -4 -40 -9 0 -4 7 -7 16 -5 10 2 19 -2 21 -9 3 -7 -5 -10
-21 -9 -14 2 -23 0 -21 -4 3 -5 -2 -11 -10 -14 -10 -3 -15 -1 -13 7 2 6 -2 12
-7 12 -5 0 -8 -8 -7 -18 2 -9 -2 -17 -8 -17 -6 0 -9 4 -6 9 3 5 -2 15 -12 22
-15 13 -16 12 -3 -4 15 -20 2 -23 -19 -5 -13 11 -13 11 -2 -2 20 -23 14 -35
-8 -15 -11 10 -20 13 -20 7 0 -7 5 -12 11 -12 5 0 7 -5 4 -10 -9 -14 -38 9
-31 25 2 6 -2 12 -10 12 -12 0 -12 -4 1 -24 9 -13 11 -23 5 -23 -6 0 -13 7
-16 15 -4 8 -10 15 -16 15 -5 0 -6 -4 -3 -10 3 -5 1 -10 -4 -10 -6 0 -11 -4
-11 -9 0 -6 9 -8 20 -6 11 2 18 0 15 -5 -3 -5 3 -8 14 -7 11 0 17 6 14 12 -3
5 0 4 8 -3 12 -11 12 -14 0 -21 -8 -5 -20 -7 -28 -4 -7 3 -13 0 -13 -7 0 -7
-9 -2 -20 11 -10 13 -19 19 -20 13 0 -6 3 -14 7 -18 11 -10 12 -35 3 -41 -5
-3 -7 3 -5 15 5 28 -12 34 -43 14 -24 -15 -25 -16 -13 -1 8 10 9 17 3 17 -6 0
-16 -8 -22 -17 -9 -15 -11 -15 -7 -2 6 19 -10 39 -32 39 -11 0 -10 -4 5 -15
17 -14 15 -14 -13 0 -18 8 -33 12 -33 7 0 -4 -6 -16 -13 -27 -13 -16 -14 -15
-12 14 1 17 -2 34 -7 37 -8 5 -12 -9 -9 -33 1 -6 -4 -15 -10 -19 -8 -4 -9 -3
-5 5 4 6 2 19 -6 28 -9 12 -9 15 0 9 6 -4 12 -2 12 3 0 6 -5 11 -12 11 -9 0
-9 3 0 12 15 15 15 28 1 28 -5 0 -7 -5 -4 -10 3 -6 0 -13 -9 -16 -8 -3 -12
-12 -10 -19 4 -9 -1 -13 -15 -12 -11 0 -18 3 -16 5 2 3 -3 11 -11 19 -22 22
-28 9 -9 -20 16 -25 16 -25 -5 -20 -12 3 -17 9 -12 12 6 3 0 18 -14 34 -13 16
-24 25 -24 21 0 -3 -6 -1 -13 5 -8 6 -17 8 -20 4 -4 -3 -13 -1 -20 5 -8 7 -16
9 -19 7 -3 -3 -5 7 -4 22 0 15 7 33 15 39 19 15 22 41 5 41 -8 0 -14 -4 -14
-9 0 -4 6 -8 13 -8 6 0 -1 -12 -18 -26 -16 -14 -24 -22 -16 -18 9 5 12 3 7 -4
-9 -14 -33 -3 -60 26 -10 12 -25 18 -34 15 -12 -4 -12 -1 3 10 11 9 26 17 34
17 11 0 11 -3 0 -17 -8 -9 -9 -14 -3 -10 13 8 37 -16 27 -26 -3 -4 -2 -7 4 -7
13 0 24 25 29 60 l3 25 -13 -24 c-14 -25 -14 -25 -27 -4 -7 12 -19 19 -26 16
-9 -4 -11 0 -7 13 5 16 4 16 -5 4 -7 -10 -11 -11 -11 -2 0 6 -7 12 -15 12 -8
0 -15 5 -15 11 0 5 5 7 12 3 7 -4 8 -3 4 5 -4 6 -11 9 -16 6 -5 -3 -11 -1 -15
5 -3 5 -12 10 -18 10 -7 0 -6 -4 3 -10 9 -6 10 -10 3 -10 -6 0 -15 5 -18 10
-4 6 -11 7 -17 4 -6 -4 -8 -2 -5 3 4 6 0 14 -9 17 -8 3 -12 10 -9 16 3 5 1 10
-4 10 -6 0 -11 -8 -11 -17 0 -15 -2 -16 -10 -3 -6 11 -4 18 9 25 10 5 16 17
13 25 -4 11 1 10 16 -4 21 -18 21 -20 4 -33 -15 -13 -15 -14 -1 -10 9 3 21 1
26 -4 5 -5 17 -7 27 -3 14 5 12 10 -15 26 l-31 19 23 26 c24 25 24 25 2 12
-13 -8 -23 -18 -23 -23 0 -4 -6 -3 -14 3 -11 10 -17 8 -26 -6 -9 -15 -10 -14
-4 7 6 22 5 23 -9 11 -9 -7 -14 -18 -11 -23 4 -6 0 -14 -7 -19 -19 -12 -29
-11 -29 1 0 5 5 9 11 7 17 -3 19 31 2 37 -8 3 -11 10 -8 16 3 5 2 10 -2 10 -5
0 -14 10 -22 23 -13 21 -13 21 13 -2 14 -14 26 -20 26 -14 0 6 -7 17 -16 24
-9 7 -20 24 -25 37 -5 13 -13 20 -19 17 -5 -3 -10 -1 -10 4 0 14 17 14 25 1 3
-6 11 -10 17 -10 6 0 5 7 -3 18 -7 9 -9 14 -5 10 5 -5 16 1 23 12 8 11 18 18
22 16 4 -3 8 1 8 9 0 8 -5 11 -11 7 -22 -13 -35 -10 -33 10 1 15 7 18 24 15
12 -2 20 0 17 4 -3 5 -14 9 -25 9 -11 0 -17 5 -14 10 4 6 12 8 18 4 7 -3 3 2
-7 10 -11 9 -16 16 -10 16 5 0 1 5 -9 11 -10 6 -21 8 -24 5 -4 -3 -1 -6 5 -6
7 0 12 -5 12 -11 0 -5 -5 -7 -12 -3 -7 4 -8 3 -4 -5 4 -6 12 -9 17 -6 10 7 12
-8 2 -19 -11 -10 -13 -37 -2 -31 5 4 6 -1 3 -9 -5 -12 -9 -11 -25 5 -17 17
-23 18 -37 7 -12 -9 -11 -5 3 12 11 14 22 27 25 30 10 10 10 30 0 30 -6 0 -10
-4 -10 -10 0 -5 -4 -10 -9 -10 -10 0 -8 33 4 65 7 16 6 18 -6 8 -7 -7 -18 -13
-23 -13 -11 1 22 23 37 26 21 4 20 7 -8 19 -16 8 -24 14 -16 15 8 0 20 8 28
18 8 9 12 11 8 5 -4 -9 0 -11 12 -7 10 3 7 -2 -7 -11 l-25 -16 25 6 c14 4 20
3 15 -2 -17 -13 -12 -47 9 -65 23 -21 33 -24 17 -5 -6 8 -7 18 -3 22 4 5 2 5
-4 2 -7 -4 -11 3 -11 18 0 16 4 22 11 18 6 -4 5 1 -3 10 -13 17 -4 24 15 10 5
-5 2 -1 -8 8 -9 9 -14 20 -10 23 3 4 -2 4 -13 1 -18 -6 -18 -5 2 13 19 17 20
21 7 26 -8 3 -12 10 -9 16 4 6 12 5 21 -5 22 -22 30 -19 10 4 -15 16 -15 19
-1 24 17 7 21 27 4 27 -5 0 -7 -5 -3 -11 4 -7 1 -10 -6 -7 -7 2 -14 12 -16 22
-2 11 2 16 11 12 10 -3 12 0 8 11 -4 10 -2 14 5 9 6 -3 14 -1 18 5 4 7 3 9 -4
5 -6 -3 -13 -2 -16 3 -3 5 4 11 16 14 18 5 20 8 8 22 -12 15 -12 16 5 13 10
-1 20 2 22 8 2 6 -9 11 -27 11 -21 0 -29 -4 -26 -13 3 -8 0 -11 -9 -7 -9 3
-18 -4 -24 -20 -10 -27 -31 -45 -31 -28 0 6 5 11 10 11 6 0 10 5 10 12 0 6 7
20 17 30 16 18 7 25 -13 11 -5 -5 -1 0 9 10 11 9 16 17 11 17 -5 0 7 14 26 30
27 24 30 30 14 25 -15 -4 -24 0 -28 11 -5 13 -3 14 6 6 9 -7 18 -7 29 2 15 10
15 14 3 31 -8 10 -14 24 -14 29 1 6 8 -1 16 -16 8 -16 20 -28 26 -28 6 0 8 3
5 7 -4 3 -2 12 5 20 8 11 7 12 -6 7 -9 -3 -16 -2 -17 2 0 5 -2 17 -4 27 -2 11
0 16 3 12 4 -4 7 -11 7 -16 0 -5 3 -9 8 -9 4 0 12 0 19 0 6 0 4 8 -6 19 -12
13 -14 21 -6 26 6 3 9 1 8 -6 -2 -7 4 -14 12 -14 29 -2 30 6 2 31 l-27 26 31
-21 c28 -18 33 -19 44 -6 11 13 10 14 -2 10 -9 -4 -18 0 -21 9 -4 11 0 13 19
10 19 -4 24 -1 18 8 -14 22 -13 37 2 31 8 -3 21 0 29 7 12 10 18 10 29 1 11
-9 20 -10 35 -1 14 7 21 7 21 0 0 -5 5 -10 11 -10 8 0 8 4 -1 15 -9 10 -17 12
-30 5 -9 -5 -20 -6 -24 -3 -23 23 19 38 50 18 29 -19 38 -19 30 0 -7 20 4 19
34 -2 22 -15 23 -15 12 -1 -10 13 -11 22 -2 38 6 11 8 24 5 29 -3 5 -2 17 1
26 5 13 8 14 15 3 13 -19 11 -36 -2 -18 -9 13 -10 13 -6 0 2 -8 10 -14 16 -13
6 2 11 -1 11 -6 0 -15 39 -19 51 -5 6 8 15 11 20 8 5 -3 17 -7 28 -9 14 -3 18
1 14 16 -3 11 0 19 6 19 7 0 9 -5 5 -12 -4 -7 -3 -8 4 -4 6 4 8 14 5 24 -6 15
-5 15 11 3 13 -11 20 -11 28 -3 7 7 8 12 3 12 -6 0 -3 5 5 10 12 7 10 9 -8 7
-12 0 -22 -5 -22 -10 0 -5 -8 -3 -17 4 -14 12 -16 12 -8 0 6 -10 4 -12 -5 -6
-9 6 -11 4 -5 -5 6 -10 4 -11 -6 -4 -20 12 -51 16 -44 5 3 -5 1 -12 -5 -16 -6
-4 -8 -10 -5 -15 3 -4 -3 -14 -12 -21 -15 -12 -16 -12 -10 3 3 10 1 20 -5 24
-7 5 -8 2 -3 -6 6 -9 4 -11 -5 -5 -9 6 -11 4 -5 -6 7 -12 5 -12 -6 -1 -12 11
-12 14 0 21 8 5 20 7 28 4 8 -3 13 -2 12 3 -5 26 3 34 29 31 16 -2 32 2 39 12
8 11 12 12 13 4 0 -7 5 -13 10 -13 6 0 10 7 8 16 -2 10 3 19 11 22 9 3 11 -1
7 -16 -5 -15 -2 -20 11 -18 12 0 17 -5 17 -17 -1 -10 1 -16 4 -12 3 3 12 -5
19 -17 l14 -23 -7 25 c-6 23 -6 24 11 10 11 -8 16 -10 12 -4 -8 14 21 30 59
33 8 0 12 6 9 11 -5 8 -12 7 -23 -2 -14 -10 -15 -10 -5 2 9 9 9 19 2 34 -8 16
-6 15 10 -4 20 -25 20 -25 36 -5z m-248 -7 c2 -17 0 -19 -7 -8 -5 8 -6 18 -4
22 8 12 10 10 11 -14z m990 -10 c-3 -7 -5 -2 -5 12 0 14 2 19 5 13 2 -7 2 -19
0 -25z m-872 12 c-2 -3 6 -12 17 -19 18 -11 20 -11 15 2 -4 11 0 13 14 10 11
-3 19 0 19 8 0 7 3 10 6 7 9 -10 -16 -49 -27 -43 -5 4 -9 0 -9 -7 0 -10 -2
-10 -9 1 -5 8 -10 9 -12 2 -2 -6 -11 2 -20 18 -13 21 -13 28 -3 28 7 0 11 -3
9 -7z m181 -2 c4 -7 3 -8 -4 -4 -7 4 -12 3 -12 -3 0 -13 15 -22 24 -14 10 11
36 12 36 2 0 -5 0 -12 0 -16 0 -11 -39 -12 -45 -2 -3 4 -14 6 -25 4 -17 -3
-18 -1 -8 21 12 26 23 30 34 12z m-362 -10 c-5 -8 -1 -9 12 -5 18 7 18 6 2 -6
-10 -8 -14 -18 -10 -22 4 -5 2 -5 -5 -2 -6 4 -10 15 -8 25 5 23 4 22 11 22 3
0 2 -5 -2 -12z m486 -10 c0 -4 -4 -8 -9 -8 -6 0 -12 4 -15 8 -3 5 1 9 9 9 8 0
15 -4 15 -9z m74 -49 c-3 -5 3 -6 12 -2 11 4 15 2 12 -7 -2 -7 -14 -14 -26
-15 -17 -1 -19 2 -12 15 6 11 4 25 -6 41 l-16 24 21 -24 c12 -12 18 -27 15
-32z m-630 33 c2 -4 -4 -8 -14 -8 -10 0 -16 4 -14 8 3 4 9 8 14 8 5 0 11 -4
14 -8z m50 -7 c3 -8 1 -15 -4 -15 -6 0 -10 7 -10 15 0 8 2 15 4 15 2 0 6 -7
10 -15z m99 -22 c-7 -3 -9 -11 -6 -20 5 -13 3 -14 -17 -3 -22 12 -23 13 -5 26
10 7 23 10 28 7 8 -5 7 -8 0 -10z m561 9 c3 -5 -1 -9 -9 -9 -8 0 -12 4 -9 9 3
4 7 8 9 8 2 0 6 -4 9 -8z m-721 -30 c15 -16 15 -21 2 -38 -13 -17 -14 -17 -15
-1 0 9 5 17 11 17 8 0 8 5 -1 15 -7 8 -17 15 -22 15 -7 0 -6 -5 0 -13 9 -10 8
-19 -3 -34 -8 -11 -11 -24 -7 -29 4 -5 -1 -2 -10 5 -10 7 -15 18 -11 24 4 6 0
8 -11 4 -10 -4 -15 -3 -11 3 3 6 1 10 -6 10 -7 0 -10 3 -7 6 4 3 15 1 25 -4
12 -7 25 -7 34 -1 13 8 5 14 -15 10 -5 -1 -4 5 4 13 16 20 23 20 43 -2z m567
8 c0 -5 -4 -10 -10 -10 -5 0 -10 5 -10 10 0 6 5 10 10 10 6 0 10 -4 10 -10z
m130 -20 c-6 -11 -8 -25 -5 -30 3 -5 -1 -7 -8 -4 -18 7 -16 32 4 45 20 13 21
11 9 -11z m-1230 -20 c0 -5 -5 -10 -11 -10 -5 0 -7 5 -4 10 3 6 8 10 11 10 2
0 4 -4 4 -10z m420 -5 c0 -8 -4 -15 -8 -15 -5 0 -9 7 -9 15 0 8 4 15 9 15 4 0
8 -7 8 -15z m905 -3 c-3 -3 -11 0 -18 7 -9 10 -8 11 6 5 10 -3 15 -9 12 -12z
m429 10 c3 -5 -1 -9 -9 -9 -8 0 -12 4 -9 9 3 4 7 8 9 8 2 0 6 -4 9 -8z m-404
-22 c-8 -5 -19 -10 -25 -10 -5 0 -3 5 5 10 8 5 20 10 25 10 6 0 3 -5 -5 -10z
m-1373 -15 c0 -8 -4 -12 -9 -9 -4 3 -8 9 -8 15 0 5 4 9 8 9 5 0 9 -7 9 -15z
m403 -5 c0 -4 -7 -7 -15 -6 -23 3 -26 12 -5 13 11 1 20 -2 20 -7z m1394 -6 c3
-8 2 -12 -4 -9 -6 3 -10 10 -10 16 0 14 7 11 14 -7z m-1816 -19 c-3 -3 -9 2
-12 12 -6 14 -5 15 5 6 7 -7 10 -15 7 -18z m1427 5 c4 -6 3 -10 -2 -9 -18 3
-33 -1 -33 -10 0 -5 7 -8 16 -7 9 0 21 -8 28 -18 27 -47 39 -56 55 -43 14 10
14 10 3 -5 -11 -14 -10 -19 9 -32 26 -18 32 -16 23 8 -3 9 -11 13 -17 9 -6 -4
-7 -1 -2 7 6 10 11 10 20 -3 7 -9 14 -14 17 -11 4 3 9 -1 14 -8 4 -7 4 -10 -1
-6 -10 9 -40 -30 -30 -40 3 -3 10 0 15 8 7 11 10 11 10 2 0 -7 -7 -15 -15 -18
-8 -4 -12 -10 -9 -16 3 -5 15 -1 27 9 l22 18 -20 -24 c-17 -21 -18 -23 -3 -18
10 3 20 2 23 -4 4 -5 11 -7 16 -4 5 4 9 1 9 -5 0 -6 -11 -8 -27 -4 -16 3 -35
6 -44 7 -10 1 -15 7 -11 16 3 9 1 12 -6 7 -6 -4 -16 3 -23 15 -9 19 -9 21 4
16 9 -3 18 1 21 9 4 12 1 14 -14 9 -12 -4 -20 -2 -20 5 0 6 -4 9 -9 6 -5 -3
-14 1 -21 9 -7 8 -9 15 -5 15 4 0 2 6 -4 13 -6 8 -8 17 -4 20 6 6 -10 11 -28
9 -4 -1 -14 7 -24 18 -16 17 -15 20 4 39 24 24 27 25 36 11z m29 -26 c3 -8 2
-12 -4 -9 -6 3 -10 10 -10 16 0 14 7 11 14 -7z m410 -10 c3 -8 2 -12 -4 -9 -6
3 -10 10 -10 16 0 14 7 11 14 -7z m-1870 -3 c4 -5 -3 -7 -14 -4 -23 6 -26 13
-6 13 8 0 17 -4 20 -9z m1956 -42 c0 -6 -7 -12 -15 -15 -8 -4 -13 -10 -10 -14
3 -5 1 -11 -4 -15 -6 -3 -8 4 -6 16 5 25 -12 52 -26 43 -5 -3 -9 -1 -9 5 0 5
6 11 13 14 14 5 57 -21 57 -34z m-1976 23 c3 -5 -1 -9 -9 -9 -8 0 -15 4 -15 9
0 4 4 8 9 8 6 0 12 -4 15 -8z m1926 -32 c0 -5 -2 -10 -4 -10 -3 0 -8 5 -11 10
-3 6 -1 10 4 10 6 0 11 -4 11 -10z m53 -34 c-28 -38 -35 -31 -11 11 12 20 24
31 26 25 2 -6 -5 -23 -15 -36z m-80 19 c4 -8 3 -16 -1 -19 -4 -3 -9 4 -9 15
-2 23 3 25 10 4z m45 -76 c-3 -8 -7 -3 -11 10 -4 17 -3 21 5 13 5 -5 8 -16 6
-23z m-1658 1 c0 -5 -2 -10 -4 -10 -3 0 -8 5 -11 10 -3 6 -1 10 4 10 6 0 11
-4 11 -10z m1335 1 c3 -5 2 -12 -3 -15 -5 -3 -9 1 -9 9 0 17 3 19 12 6z
m-1380 -21 c3 -5 1 -10 -4 -10 -6 0 -11 5 -11 10 0 6 2 10 4 10 3 0 8 -4 11
-10z m-318 -45 c0 -8 -4 -12 -9 -9 -4 3 -8 9 -8 15 0 5 4 9 8 9 5 0 9 -7 9
-15z m294 -32 c-12 -20 -14 -14 -5 12 4 9 9 14 11 11 3 -2 0 -13 -6 -23z
m1433 19 c2 -4 -5 -9 -17 -9 -17 -2 -19 0 -7 7 18 12 18 12 24 2z m313 -17 c0
-8 -4 -12 -9 -9 -5 3 -6 10 -3 15 9 13 12 11 12 -6z m-303 -41 c3 -8 2 -12 -4
-9 -6 3 -10 10 -10 16 0 14 7 11 14 -7z m-1753 -21 c13 -16 12 -17 -3 -4 -10
7 -18 15 -18 17 0 8 8 3 21 -13z m389 7 c3 -1 -5 -5 -18 -11 -13 -5 -21 -13
-18 -18 3 -5 -1 -14 -9 -21 -8 -7 -12 -16 -9 -21 3 -5 0 -9 -5 -9 -6 0 -11 -5
-11 -11 0 -5 4 -8 9 -4 17 10 21 -12 6 -25 -11 -9 -12 -16 -4 -26 8 -9 4 -17
-16 -30 -14 -9 -27 -15 -28 -13 -2 2 -9 13 -17 24 -15 20 -14 20 8 1 24 -21
28 -16 11 17 -9 20 -9 20 4 5 8 -10 17 -15 20 -11 4 3 2 13 -5 20 -7 9 -8 17
-2 21 5 4 9 20 9 35 -1 16 3 31 8 34 4 3 12 15 17 28 8 21 18 24 50 15z m-400
-44 c0 -2 -7 -9 -15 -16 -13 -11 -14 -10 -9 4 5 14 24 23 24 12z m2067 -11 c0
-8 -4 -12 -9 -9 -5 3 -6 10 -3 15 9 13 12 11 12 -6z m-282 -15 c-3 -5 -12 -10
-18 -10 -7 0 -6 4 3 10 19 12 23 12 15 0z m-1480 -29 c-6 -5 -25 10 -25 20 0
5 6 4 14 -3 8 -7 12 -15 11 -17z m-315 15 c0 -3 -4 -8 -10 -11 -5 -3 -10 -1
-10 4 0 6 5 11 10 11 6 0 10 -2 10 -4z m293 -41 c-3 -9 -8 -14 -10 -11 -3 3
-2 9 2 15 9 16 15 13 8 -4z m-301 -54 c-4 -10 -7 -11 -10 -3 -2 7 -9 9 -14 6
-6 -4 -8 -3 -5 3 10 16 36 11 29 -6z m2127 -18 c-3 -21 2 -33 13 -27 7 5 8 3
3 -6 -6 -10 -11 -9 -21 5 -7 10 -11 22 -8 26 6 11 14 12 13 2z m-363 -28 c-1
-8 -5 -18 -9 -21 -4 -4 -2 -13 4 -21 14 -16 3 -17 -15 -1 -11 11 -11 17 1 35
18 27 22 29 19 8z m79 -4 c3 -5 2 -12 -3 -15 -5 -3 -9 1 -9 9 0 17 3 19 12 6z
m-1892 -32 c5 -18 9 -19 29 -9 20 10 21 10 6 -3 -13 -10 -15 -16 -6 -25 7 -7
9 -12 5 -12 -3 0 -16 10 -27 23 -18 18 -20 19 -14 3 5 -13 3 -17 -7 -14 -11 4
-16 28 -10 53 3 13 19 3 24 -16z m357 15 c0 -8 -19 -13 -24 -6 -3 5 1 9 9 9 8
0 15 -2 15 -3z m1897 -16 c1 -15 -1 -17 -11 -9 -6 6 -21 9 -32 7 -10 -2 -13
-1 -5 1 12 4 12 6 0 13 -9 6 -3 8 17 8 22 -1 30 -6 31 -20z m-382 -18 c-3 -5
-12 -10 -18 -10 -7 0 -6 4 3 10 19 12 23 12 15 0z m365 -75 c-6 -8 -5 -16 3
-24 9 -10 8 -11 -5 -6 -13 5 -17 2 -15 -14 1 -11 8 -23 15 -26 11 -4 12 -8 2
-20 -10 -13 -14 -12 -28 1 -14 14 -16 14 -28 -8 -7 -12 -13 -18 -14 -12 0 5 6
19 14 30 11 14 11 22 4 32 -9 10 -6 14 10 19 12 3 22 10 22 15 0 6 -7 7 -15 4
-8 -3 -22 -9 -30 -12 -8 -3 -15 -2 -15 3 0 5 6 10 13 11 43 6 57 9 63 15 4 4
-1 7 -11 7 -10 0 -16 3 -12 6 8 8 -16 33 -25 27 -4 -2 -5 3 -2 11 4 11 12 7
35 -16 20 -22 26 -35 19 -43z m-2260 25 c0 -5 -2 -10 -4 -10 -3 0 -8 5 -11 10
-3 6 -1 10 4 10 6 0 11 -4 11 -10z m2215 1 c3 -5 2 -12 -3 -15 -5 -3 -9 1 -9
9 0 17 3 19 12 6z m-2208 -46 c0 -8 -4 -12 -9 -9 -5 3 -6 10 -3 15 9 13 12 11
12 -6z m1867 -21 c3 -8 2 -12 -4 -9 -6 3 -10 10 -10 16 0 14 7 11 14 -7z m302
-20 c1 -9 0 -13 -4 -10 -3 4 -7 14 -8 22 -1 9 0 13 4 10 3 -4 7 -14 8 -22z
m-1761 7 c3 -5 0 -13 -6 -17 -8 -5 -9 -3 -4 6 6 10 4 12 -9 7 -10 -4 -15 -3
-11 3 8 13 22 13 30 1z m48 -21 c-4 -4 -21 -10 -38 -14 -29 -6 -29 -6 -7 7 25
14 59 19 45 7z m-386 -15 c0 -8 -4 -12 -9 -9 -4 3 -8 9 -8 15 0 5 4 9 8 9 5 0
9 -7 9 -15z m1720 0 c0 -8 -4 -15 -8 -15 -11 0 -20 16 -12 24 11 11 20 7 20
-9z m-1755 -5 c2 7 9 -1 16 -16 11 -26 11 -27 -2 -11 -8 10 -17 14 -20 9 -6
-10 9 -26 34 -35 12 -4 11 -6 -3 -6 -10 -1 -16 -5 -12 -11 3 -5 11 -8 18 -6 7
1 9 1 5 -1 -3 -2 -4 -15 -2 -29 2 -13 0 -24 -5 -24 -11 0 -36 30 -25 30 5 0 0
7 -10 15 -11 8 -14 15 -7 15 7 0 9 5 4 12 -4 7 -8 26 -9 43 -2 18 0 24 5 16 7
-10 10 -10 13 -1z m1828 6 c0 -3 -4 -8 -10 -11 -5 -3 -10 -1 -10 4 0 6 5 11
10 11 6 0 10 -2 10 -4z m-22 -40 c-14 -10 -15 -15 -5 -25 9 -10 8 -11 -5 -6
-10 4 -18 11 -18 16 0 4 8 13 18 18 24 15 30 13 10 -3z m-1738 -6 c8 -5 11
-10 5 -10 -5 0 -17 5 -25 10 -8 5 -10 10 -5 10 6 0 17 -5 25 -10z m1735 -60
c-3 -5 -12 -10 -18 -10 -7 0 -6 4 3 10 19 12 23 12 15 0z m-1724 -23 c-6 -8
-8 -17 -4 -21 4 -4 0 -4 -10 0 -17 6 -17 7 0 20 23 17 28 18 14 1z m1686 -9
c-3 -8 -6 -5 -6 6 -1 11 2 17 5 13 3 -3 4 -12 1 -19z m-1723 -14 c9 -3 16 -10
16 -16 0 -5 -4 -6 -10 -3 -5 3 -10 -1 -10 -9 0 -19 11 -20 29 -3 9 8 12 8 7 0
-3 -6 -3 -13 1 -16 5 -2 2 -2 -5 0 -8 1 -12 -3 -10 -9 3 -7 10 -13 16 -13 19
0 43 -42 35 -62 -6 -15 -5 -16 9 -5 11 9 18 10 23 2 4 -6 2 -9 -3 -8 -5 2 -19
-7 -30 -20 -20 -23 -20 -23 -27 -3 -3 12 -11 21 -16 21 -5 0 -9 5 -9 10 0 6 7
10 16 10 8 0 12 5 9 10 -4 6 -10 8 -15 5 -4 -3 -13 2 -20 10 -7 8 -9 15 -5 15
4 0 -5 14 -19 31 -21 24 -24 34 -15 45 13 16 12 16 33 8z m1691 -14 c3 -5 1
-10 -4 -10 -6 0 -11 5 -11 10 0 6 2 10 4 10 3 0 8 -4 11 -10z m-1180 -48 c-3
-3 -11 0 -18 7 -9 10 -8 11 6 5 10 -3 15 -9 12 -12z m-55 -30 c0 -5 -7 -9 -15
-9 -8 0 -12 4 -9 9 3 4 9 8 15 8 5 0 9 -4 9 -8z m1146 -6 c12 -13 11 -15 -6
-21 -11 -3 -20 -13 -20 -21 0 -8 5 -12 10 -9 6 3 10 1 10 -4 0 -13 -17 -15
-24 -3 -3 5 -7 21 -10 36 -4 23 -3 26 10 15 8 -6 17 -9 21 -5 3 3 1 6 -5 6 -7
0 -12 5 -12 10 0 14 9 12 26 -4z m498 6 c3 -5 -1 -9 -9 -9 -8 0 -12 4 -9 9 3
4 7 8 9 8 2 0 6 -4 9 -8z m-460 -18 c3 -8 2 -12 -4 -9 -6 3 -10 10 -10 16 0
14 7 11 14 -7z m-1154 2 c0 -2 -7 -7 -16 -10 -8 -3 -12 -2 -9 4 6 10 25 14 25
6z m37 -3 c-4 -3 8 -15 26 -26 29 -18 30 -21 13 -27 -13 -4 -31 1 -52 14 -31
21 -31 21 -10 33 24 14 33 16 23 6z m1512 -49 c6 -1 14 -2 18 -3 3 0 -3 -12
-16 -24 -14 -16 -19 -31 -15 -43 4 -14 3 -15 -4 -6 -7 11 -11 10 -17 -5 -5
-10 -7 -22 -6 -27 1 -5 -10 -21 -24 -36 -14 -14 -23 -29 -20 -32 3 -3 -1 -10
-8 -17 -11 -8 -18 -6 -32 9 -17 19 -17 21 -2 38 24 26 21 39 -3 17 -11 -10
-20 -14 -20 -9 0 5 -7 0 -15 -10 -8 -11 -15 -15 -15 -9 0 6 7 16 15 23 8 7 15
9 15 5 0 -5 9 0 20 10 19 17 20 17 29 -6 5 -13 10 -22 11 -19 1 3 3 13 5 23 2
10 11 27 20 37 13 14 13 19 3 24 -7 3 -2 3 12 -1 22 -5 23 -4 12 10 -11 13
-10 17 7 26 18 10 19 13 5 39 -7 15 -14 32 -13 37 0 6 7 -3 14 -20 7 -16 18
-31 24 -31z m-1595 28 c3 -5 -1 -9 -9 -9 -8 0 -12 4 -9 9 3 4 7 8 9 8 2 0 6
-4 9 -8z m51 -21 c3 -5 2 -12 -3 -15 -5 -3 -9 1 -9 9 0 17 3 19 12 6z m36 -28
c13 -16 12 -17 -3 -4 -10 7 -18 15 -18 17 0 8 8 3 21 -13z m1476 11 c-8 -9
-47 -13 -51 -6 -2 4 9 8 25 8 17 1 28 0 26 -2z m-1362 -16 c5 4 5 1 1 -6 -6
-10 -11 -10 -22 -1 -8 6 -14 14 -14 16 0 3 6 0 13 -6 8 -6 18 -7 22 -3z m895
-23 c0 -8 -4 -15 -10 -15 -5 0 -7 7 -4 15 4 8 8 15 10 15 2 0 4 -7 4 -15z
m-1360 -1 c0 -8 -19 -13 -24 -6 -3 5 1 9 9 9 8 0 15 -2 15 -3z m423 -19 c15
-13 27 -27 27 -31 0 -4 -8 0 -18 9 -10 10 -22 14 -27 10 -4 -5 -5 -3 -1 4 3 6
-2 16 -11 22 -10 6 -13 10 -8 10 6 0 22 -11 38 -24z m1321 -3 c3 -5 -1 -9 -9
-9 -8 0 -12 4 -9 9 3 4 7 8 9 8 2 0 6 -4 9 -8z m36 -2 c0 -5 -4 -10 -10 -10
-5 0 -10 5 -10 10 0 6 5 10 10 10 6 0 10 -4 10 -10z m-1769 -47 c13 -16 12
-17 -3 -4 -10 7 -18 15 -18 17 0 8 8 3 21 -13z m409 7 c0 -5 -2 -10 -4 -10 -3
0 -8 5 -11 10 -3 6 -1 10 4 10 6 0 11 -4 11 -10z m80 -20 c0 -5 -2 -10 -4 -10
-3 0 -8 5 -11 10 -3 6 -1 10 4 10 6 0 11 -4 11 -10z m53 -13 c7 3 8 2 4 -2
-14 -16 -36 -14 -29 3 4 10 7 12 10 4 2 -7 9 -9 15 -5z m553 -20 c1 -17 -1
-24 -3 -14 -2 9 -13 17 -24 17 -11 0 -17 -5 -14 -10 4 -7 -3 -9 -19 -6 -14 3
-26 0 -26 -5 0 -6 -5 -9 -11 -7 -13 4 -13 23 1 24 6 1 11 2 13 4 1 1 11 3 22
4 15 2 60 21 60 26 0 0 1 -15 1 -33z m-1079 17 c-3 -3 -12 -4 -19 -1 -8 3 -5
6 6 6 11 1 17 -2 13 -5z m49 -26 c3 -4 -1 -5 -10 -4 -8 1 -18 5 -22 8 -3 4 1
5 10 4 8 -1 18 -5 22 -8z m504 8 c0 -2 -7 -7 -16 -10 -8 -3 -12 -2 -9 4 6 10
25 14 25 6z m605 -6 c-3 -5 -12 -10 -18 -10 -7 0 -6 4 3 10 19 12 23 12 15 0z
m-51 -26 c3 -8 2 -12 -4 -9 -6 3 -10 10 -10 16 0 14 7 11 14 -7z m-1053 -11
c13 -16 12 -17 -3 -4 -17 13 -22 21 -14 21 2 0 10 -8 17 -17z m596 0 c0 -8 -6
-9 -19 -2 -10 5 -18 11 -18 12 0 2 8 3 18 3 10 0 19 -6 19 -13z m396 1 c-2 -6
-10 -11 -18 -11 -8 0 -12 4 -9 8 2 4 -2 9 -8 12 -7 2 -1 4 13 3 15 0 25 -6 22
-12z m-953 2 c0 -3 -4 -8 -10 -11 -5 -3 -10 -1 -10 4 0 6 5 11 10 11 6 0 10
-2 10 -4z m680 -19 c0 -1 -12 -3 -28 -3 -15 -1 -21 1 -14 3 6 3 9 9 6 15 -4 6
2 5 15 -1 11 -7 21 -13 21 -14z m223 16 c3 -5 -6 -9 -20 -10 -19 -1 -22 1 -12
8 17 11 26 11 32 2z m-63 -23 c0 -5 -5 -10 -11 -10 -5 0 -7 5 -4 10 3 6 8 10
11 10 2 0 4 -4 4 -10z m-70 -16 c0 -8 -19 -13 -24 -6 -3 5 1 9 9 9 8 0 15 -2
15 -3z m-706 -23 c-8 -8 -34 -10 -38 -2 -3 4 6 7 19 7 14 0 22 -2 19 -5z m31
-41 c3 -5 1 -10 -4 -10 -6 0 -11 5 -11 10 0 6 2 10 4 10 3 0 8 -4 11 -10z
m-29 -25 c-6 -17 4 -20 22 -5 9 7 9 7 2 -2 -19 -23 -11 -39 10 -18 11 11 26
20 33 19 6 0 2 -5 -10 -11 -25 -12 -32 -34 -9 -25 11 4 13 1 9 -11 -3 -9 -3
-14 2 -10 4 4 14 3 22 -3 9 -9 13 -8 13 0 0 6 5 11 11 11 5 0 8 -4 5 -9 -3 -5
11 -23 31 -40 35 -30 38 -31 50 -15 7 10 16 14 20 9 5 -4 2 -10 -5 -12 -6 -3
-9 -9 -6 -14 3 -6 12 -5 22 3 12 10 14 10 8 1 -7 -12 5 -18 27 -14 5 1 6 -3 2
-9 -3 -5 -2 -10 4 -10 5 0 11 6 14 13 2 6 2 1 0 -12 -4 -20 -2 -22 10 -13 19
16 48 5 40 -15 -4 -10 -2 -14 4 -10 7 4 10 0 9 -10 -3 -20 -24 -30 -23 -11 1
30 -4 48 -13 48 -5 0 -7 -8 -4 -17 4 -11 3 -14 -3 -7 -4 6 -16 10 -25 8 -10
-1 -20 2 -24 7 -3 5 -10 6 -16 3 -7 -4 -8 -2 -4 4 6 10 -6 17 -18 10 -2 -2
-13 5 -24 15 -13 12 -22 15 -27 8 -3 -6 -11 -11 -17 -11 -7 0 -7 4 1 14 16 19
-6 35 -42 30 -15 -1 -25 1 -22 5 2 5 -4 16 -15 26 -15 13 -20 14 -20 5 0 -8
-11 1 -25 20 -14 19 -31 37 -37 42 -10 6 -10 8 0 8 7 0 10 5 7 10 -3 6 -1 10
5 10 7 0 10 -7 6 -15z m1324 1 c0 -2 -7 -7 -16 -10 -8 -3 -12 -2 -9 4 6 10 25
14 25 6z m-1193 -43 c0 -9 -4 -10 -12 -3 -7 6 -20 8 -29 4 -9 -3 -16 -2 -16 3
0 5 13 9 28 9 17 0 29 -5 29 -13z m1148 7 c-3 -5 -12 -10 -18 -10 -7 0 -6 4 3
10 19 12 23 12 15 0z m-1118 -52 c-3 -8 -6 -5 -6 6 -1 11 2 17 5 13 3 -3 4
-12 1 -19z m150 -23 c0 -8 -4 -12 -9 -9 -5 3 -6 10 -3 15 9 13 12 11 12 -6z
m757 -17 c-5 -8 -2 -9 9 -5 23 9 21 0 -2 -13 -16 -8 -19 -7 -16 8 5 23 4 22
11 22 3 0 2 -5 -2 -12z m-729 -36 c-3 -3 -11 0 -18 7 -9 10 -8 11 6 5 10 -3
15 -9 12 -12z m691 -7 c-21 -32 -20 -35 7 -35 17 0 19 -2 7 -10 -18 -11 -39 5
-37 30 1 10 4 17 8 14 4 -2 9 3 13 11 3 8 8 15 12 15 3 0 -1 -11 -10 -25z
m-639 0 c0 -8 -4 -12 -9 -9 -5 3 -6 10 -3 15 9 13 12 11 12 -6z m600 0 c0 -8
-4 -15 -9 -15 -10 0 -11 14 -1 23 9 10 10 9 10 -8z m-523 -3 c3 -5 -1 -9 -9
-9 -8 0 -12 4 -9 9 3 4 7 8 9 8 2 0 6 -4 9 -8z m394 -22 c-7 -10 -14 -17 -17
-15 -4 4 18 35 25 35 2 0 -1 -9 -8 -20z m-343 0 c-3 -5 -12 -10 -18 -10 -7 0
-6 4 3 10 19 12 23 12 15 0z m415 0 c0 -5 -4 -10 -10 -10 -5 0 -10 5 -10 10 0
6 5 10 10 10 6 0 10 -4 10 -10z m-152 -13 c-6 -8 25 -37 41 -37 14 1 14 2 -2
14 -17 13 -17 14 0 20 10 4 14 4 10 0 -4 -4 5 -18 19 -31 14 -12 21 -23 15
-23 -5 0 -13 5 -17 11 -5 8 -10 6 -16 -5 -9 -16 -12 -16 -33 -2 -21 14 -24 14
-29 0 -4 -12 -13 -14 -32 -10 -14 4 -23 3 -20 -2 3 -5 -1 -9 -8 -9 -8 0 -12 7
-11 16 2 9 -4 26 -12 39 -14 23 -14 23 10 7 18 -11 27 -13 32 -5 5 8 12 7 24
-4 10 -9 21 -13 24 -10 4 4 -1 13 -11 21 -16 12 -16 13 2 6 15 -5 17 -3 11 8
-4 8 -5 11 -1 7 4 -3 6 -8 4 -11z m-221 -18 c1 -10 -5 -23 -13 -30 -11 -9 -14
-9 -14 1 0 10 -3 10 -14 1 -20 -17 -28 2 -10 27 17 25 49 25 51 1z m33 11 c0
-5 -4 -10 -10 -10 -5 0 -10 5 -10 10 0 6 5 10 10 10 6 0 10 -4 10 -10z m59
-66 c-6 -7 -17 -10 -25 -7 -22 8 -16 19 11 19 18 0 22 -3 14 -12z"/>
        <path d="M1596 2391 c-4 -5 -2 -12 3 -15 5 -4 12 -2 15 3 4 5 2 12 -3 15 -5 4
    -12 2 -15 -3z"/>
        <path d="M1634 2372 c4 -3 14 -7 22 -8 9 -1 13 0 10 4 -4 3 -14 7 -22 8 -9 1
    -13 0 -10 -4z"/>
        <path d="M826 2314 c-5 -14 -4 -15 9 -4 17 14 19 20 6 20 -5 0 -12 -7 -15 -16z"/>
        <path d="M1856 2273 c-6 -14 -5 -15 5 -6 7 7 10 15 7 18 -3 3 -9 -2 -12 -12z"/>
        <path d="M1290 1986 c0 -2 12 -12 28 -21 l27 -18 -19 21 c-17 20 -36 29 -36
    18z"/>
        <path d="M1199 1968 c-6 -21 -5 -37 2 -32 5 3 6 10 3 16 -5 8 -1 9 10 5 10 -4
    15 -3 11 3 -5 9 -24 14 -26 8z"/>
        <path d="M1435 1960 c3 -5 8 -10 11 -10 2 0 4 5 4 10 0 6 -5 10 -11 10 -5 0
    -7 -4 -4 -10z"/>
        <path d="M1155 1940 c-3 -5 -1 -10 4 -10 6 0 11 5 11 10 0 6 -2 10 -4 10 -3 0
    -8 -4 -11 -10z"/>
        <path d="M1359 1933 c-13 -16 -12 -17 4 -4 9 7 17 15 17 17 0 8 -8 3 -21 -13z"/>
        <path d="M1470 1940 c14 -9 7 -14 -13 -11 -5 1 -6 -3 -2 -9 5 -8 11 -8 21 1
    15 12 10 29 -9 29 -7 0 -6 -4 3 -10z"/>
        <path d="M993 1908 c-2 -18 0 -20 7 -8 12 18 13 30 2 30 -4 0 -9 -10 -9 -22z"/>
        <path d="M1076 1913 c-6 -14 -5 -15 5 -6 7 7 10 15 7 18 -3 3 -9 -2 -12 -12z"/>
        <path d="M1676 1908 c3 -4 11 -5 19 -1 21 7 19 12 -4 10 -11 0 -18 -5 -15 -9z"/>
        <path d="M1015 1900 c-3 -6 1 -7 9 -4 18 7 21 14 7 14 -6 0 -13 -4 -16 -10z"/>
        <path d="M1490 1906 c0 -2 7 -7 16 -10 8 -3 12 -2 9 4 -6 10 -25 14 -25 6z"/>
        <path d="M865 1880 c-3 -6 1 -7 9 -4 18 7 21 14 7 14 -6 0 -13 -4 -16 -10z"/>
        <path d="M1600 1880 c-12 -7 -10 -9 7 -7 12 0 19 5 17 9 -6 10 -6 10 -24 -2z"/>
        <path d="M950 1861 c0 -6 4 -12 8 -15 5 -3 9 1 9 9 0 8 -4 15 -9 15 -4 0 -8
    -4 -8 -9z"/>
        <path d="M1636 1853 c-6 -14 -5 -15 5 -6 7 7 10 15 7 18 -3 3 -9 -2 -12 -12z"/>
        <path d="M808 1845 c-20 -8 -25 -14 -17 -22 13 -13 -47 -86 -65 -76 -6 3 -8 2
    -3 -2 4 -5 1 -18 -6 -29 -8 -12 -13 -29 -11 -39 1 -12 -3 -17 -14 -15 -10 2
    -16 -2 -15 -9 2 -6 -10 -22 -25 -35 -15 -13 -28 -29 -29 -34 -3 -15 32 -11 51
    5 13 11 14 16 4 29 -11 13 -9 14 12 9 14 -4 19 -4 13 -1 -7 3 -13 10 -13 15 0
    6 4 8 9 5 5 -3 12 1 15 10 5 13 9 14 20 5 10 -9 16 -9 21 -1 4 6 1 9 -5 8 -7
    -2 -14 5 -15 15 -2 12 2 17 13 15 9 -2 17 3 17 10 0 7 7 17 15 23 13 9 12 10
    -2 5 -23 -7 -30 6 -12 22 8 7 14 8 14 2 0 -5 5 -10 11 -10 5 0 7 5 3 12 -5 8
    -1 9 12 5 18 -7 18 -7 0 8 -17 13 -18 15 -3 15 9 0 17 5 17 10 0 15 24 7 33
    -10 4 -8 5 -2 2 14 -6 27 -5 28 12 15 16 -13 17 -12 4 3 -7 10 -17 16 -21 13
    -5 -3 -10 1 -12 8 -2 11 -9 11 -30 2z m32 -27 c0 -6 -3 -8 -7 -5 -3 4 -13 1
    -21 -6 -13 -10 -14 -9 -3 11 12 22 31 22 31 0z m-84 -102 c1 -7 -5 -13 -14
    -12 -9 0 -17 -4 -17 -11 0 -6 -3 -14 -7 -18 -10 -11 -3 17 11 43 13 24 23 23
    27 -2z m-87 -122 c-6 -7 -15 -11 -21 -8 -5 3 -4 12 3 20 6 7 15 11 21 8 5 -3
    4 -12 -3 -20z"/>
        <path d="M875 1840 c3 -5 8 -10 11 -10 2 0 4 5 4 10 0 6 -5 10 -11 10 -5 0 -7
    -4 -4 -10z"/>
        <path d="M915 1820 c-3 -5 -1 -10 4 -10 6 0 11 5 11 10 0 6 -2 10 -4 10 -3 0
    -8 -4 -11 -10z"/>
        <path d="M1748 1792 c9 -10 19 -17 21 -16 6 5 -20 34 -30 34 -5 0 -1 -8 9 -18z"/>
        <path d="M1730 1780 c0 -5 5 -10 11 -10 5 0 7 5 4 10 -3 6 -8 10 -11 10 -2 0
    -4 -4 -4 -10z"/>
        <path d="M1810 1699 c0 -5 5 -7 10 -4 6 3 10 8 10 11 0 2 -4 4 -10 4 -5 0 -10
    -5 -10 -11z"/>
        <path d="M1835 1690 c-3 -5 -1 -10 4 -10 6 0 11 5 11 10 0 6 -2 10 -4 10 -3 0
    -8 -4 -11 -10z"/>
        <path d="M770 1660 c0 -5 5 -10 11 -10 5 0 7 5 4 10 -3 6 -8 10 -11 10 -2 0
    -4 -4 -4 -10z"/>
        <path d="M1856 1657 c3 -10 9 -15 12 -12 3 3 0 11 -7 18 -10 9 -11 8 -5 -6z"/>
        <path d="M710 1610 c-9 -6 -10 -10 -3 -10 6 0 15 5 18 10 8 12 4 12 -15 0z"/>
        <path d="M696 1579 c4 -8 30 -6 38 2 3 3 -5 5 -19 5 -13 0 -22 -3 -19 -7z"/>
        <path d="M1966 1567 c3 -10 9 -15 12 -12 3 3 0 11 -7 18 -10 9 -11 8 -5 -6z"/>
        <path d="M674 1509 c-3 -6 2 -18 12 -27 17 -16 17 -16 5 0 -7 9 -10 22 -6 28
    3 5 4 10 1 10 -3 0 -8 -5 -12 -11z"/>
        <path d="M1906 1502 c-3 -5 1 -9 9 -9 8 0 12 4 9 9 -3 4 -7 8 -9 8 -2 0 -6 -4
    -9 -8z"/>
        <path d="M1947 1486 c-3 -7 -1 -18 4 -23 6 -6 4 -14 -6 -23 -8 -7 -15 -16 -15
    -21 0 -14 55 45 56 60 1 10 -2 10 -11 -3 -7 -8 -15 -13 -18 -9 -4 3 -2 12 4
    20 7 8 8 13 1 13 -5 0 -12 -6 -15 -14z"/>
        <path d="M637 1363 c-11 -10 -8 -20 8 -26 8 -4 17 -2 20 4 4 5 1 8 -7 7 -7 -2
    -12 3 -10 10 2 13 -1 15 -11 5z"/>
        <path d="M635 1279 c-3 -4 2 -6 10 -5 21 3 28 13 10 13 -9 0 -18 -4 -20 -8z"/>
        <path d="M566 1234 c-9 -24 -8 -26 14 -14 11 6 18 15 15 21 -9 14 -22 11 -29
    -7z"/>
        <path d="M581 1166 c-9 -10 -8 -15 2 -19 8 -3 13 3 14 14 2 23 -1 24 -16 5z"/>
        <path d="M2005 1169 c-4 -6 -5 -12 -2 -15 2 -3 7 2 10 11 7 17 1 20 -8 4z"/>
        <path d="M680 1126 c0 -2 8 -10 18 -17 15 -13 16 -12 3 4 -13 16 -21 21 -21
    13z"/>
        <path d="M1987 1116 c-4 -10 -1 -13 9 -9 15 6 19 23 5 23 -5 0 -11 -7 -14 -14z"/>
        <path d="M642 1075 c-10 -12 -10 -15 0 -15 6 0 3 -6 -7 -14 -18 -13 -18 -14 7
    -39 22 -22 24 -28 12 -38 -12 -10 -12 -14 -2 -20 7 -4 17 -4 24 1 6 6 14 7 17
    3 4 -3 7 -1 7 5 0 7 -8 12 -17 12 -15 0 -16 2 -3 9 8 6 19 7 25 4 5 -4 0 5
    -13 19 -14 16 -20 32 -17 44 5 15 3 14 -7 -3 -9 -15 -18 -19 -26 -14 -11 7
    -10 10 3 15 9 3 13 10 10 16 -3 5 -1 10 4 10 6 0 11 5 11 10 0 14 -13 12 -28
    -5z m40 -73 c9 -9 9 -12 0 -12 -7 0 -12 5 -12 11 0 5 -4 8 -9 4 -5 -3 -12 -1
    -15 4 -8 13 22 7 36 -7z"/>
        <path d="M690 1031 c0 -6 4 -13 10 -16 6 -3 7 1 4 9 -7 18 -14 21 -14 7z"/>
        <path d="M1951 988 c-14 -23 -14 -23 8 -4 22 20 25 26 13 26 -4 0 -13 -10 -21
    -22z"/>
        <path d="M717 973 c-10 -9 -9 -23 1 -23 5 0 9 7 9 15 0 17 -1 18 -10 8z"/>
        <path d="M779 938 c-6 -20 -6 -39 0 -42 4 -3 7 6 7 20 0 20 -4 32 -7 22z"/>
        <path d="M795 860 c-13 -6 -15 -9 -5 -9 8 0 22 4 30 9 18 12 2 12 -25 0z"/>
        <path d="M821 834 c0 -11 3 -14 6 -6 3 7 2 16 -1 19 -3 4 -6 -2 -5 -13z"/>
        <path d="M1779 817 c6 -8 8 -17 4 -20 -10 -11 -23 -8 -20 4 1 6 -5 14 -13 16
    -13 4 -13 3 0 -6 8 -6 11 -11 6 -11 -5 0 -3 -7 4 -15 8 -9 9 -15 2 -15 -6 0
    -14 5 -17 10 -3 6 -12 10 -18 9 -9 0 -8 -2 1 -6 6 -2 10 -9 6 -14 -3 -5 -14
    -4 -27 2 -18 9 -20 9 -10 -1 10 -11 9 -16 -5 -27 -16 -12 -16 -13 2 -6 13 4
    17 3 12 -5 -3 -6 -1 -14 5 -17 17 -11 23 3 9 20 -7 8 -9 15 -4 16 5 0 18 3 29
    6 11 2 27 5 36 6 14 1 16 13 10 60 -1 4 -6 7 -12 7 -8 0 -9 -4 0 -13z"/>
        <path d="M1709 803 c-13 -16 -12 -17 4 -4 16 13 21 21 13 21 -2 0 -10 -8 -17
    -17z"/>
        <path d="M1661 756 c-9 -11 -9 -16 0 -22 7 -4 9 -3 5 4 -3 5 0 12 6 15 7 2 10
    7 7 11 -3 4 -12 0 -18 -8z"/>
        <path d="M976 725 c4 -8 11 -15 16 -15 6 0 5 6 -2 15 -7 8 -14 15 -16 15 -2 0
    -1 -7 2 -15z"/>
        <path d="M1615 730 c-4 -6 -10 -8 -14 -6 -4 3 -8 -1 -8 -9 0 -21 10 -19 25 5
    7 11 10 20 8 20 -3 0 -8 -5 -11 -10z"/>
        <path d="M936 708 c-17 -24 -10 -37 20 -43 11 -2 20 -4 22 -5 1 -2 7 -3 12 -4
    6 0 15 -7 19 -15 5 -7 14 -10 21 -6 6 4 23 -3 37 -16 15 -13 23 -19 19 -12 -3
    6 -2 14 4 18 15 9 12 25 -4 25 -8 0 -17 6 -20 13 -3 6 -3 2 0 -11 5 -21 4 -22
    -15 -10 -12 7 -17 14 -11 16 5 2 10 8 10 14 0 6 -9 3 -20 -7 -22 -20 -28 -8
    -7 14 10 11 10 13 0 7 -7 -4 -13 -2 -13 3 0 6 -5 11 -11 11 -8 0 -8 -5 1 -15
    8 -9 9 -15 2 -15 -6 0 -17 9 -25 20 -8 11 -17 17 -22 12 -4 -4 -5 1 -2 11 9
    23 1 21 -17 -5z m50 -41 c6 -9 5 -9 -8 0 -8 7 -18 10 -21 6 -4 -3 -7 -1 -7 6
    0 7 -5 9 -12 5 -7 -4 -8 -3 -4 4 8 13 40 1 52 -21z"/>
        <path d="M1014 719 c-4 -7 -3 -9 4 -5 6 3 15 -2 21 -11 6 -10 11 -13 11 -7 0
    20 -27 37 -36 23z"/>
        <path d="M1550 721 c0 -6 4 -12 8 -15 5 -3 9 1 9 9 0 8 -4 15 -9 15 -4 0 -8
    -4 -8 -9z"/>
        <path d="M1495 700 c3 -5 8 -10 11 -10 2 0 4 5 4 10 0 6 -5 10 -11 10 -5 0 -7
    -4 -4 -10z"/>
        <path d="M1070 684 c0 -2 9 -8 20 -14 15 -8 18 -8 14 3 -4 11 -34 21 -34 11z"/>
        <path d="M1456 682 c-3 -5 1 -9 9 -9 8 0 12 4 9 9 -3 4 -7 8 -9 8 -2 0 -6 -4
    -9 -8z"/>
        <path d="M1217 652 c3 -14 -2 -24 -17 -32 -20 -11 -21 -10 -16 12 3 12 3 17 0
    11 -3 -7 -10 -13 -15 -13 -6 0 -7 6 -3 13 4 6 -2 3 -14 -7 -12 -11 -22 -21
    -22 -24 0 -3 3 -2 7 1 11 11 32 -14 26 -31 -4 -14 -3 -14 5 -3 6 8 19 15 29
    17 10 1 27 5 37 9 13 6 17 5 12 -3 -13 -21 48 -38 72 -20 6 6 12 16 12 22 0 6
    -5 4 -11 -4 -9 -12 -10 -10 -6 8 3 13 3 21 0 18 -4 -3 -12 -1 -20 6 -10 8 -12
    8 -8 -3 4 -11 -4 -15 -34 -15 -35 -1 -38 1 -28 17 9 14 9 21 0 30 -9 9 -11 7
    -6 -9z m-46 -39 c13 -16 12 -17 -3 -4 -10 7 -18 15 -18 17 0 8 8 3 21 -13z
    m123 -14 c-2 -4 2 -9 8 -12 7 -3 1 -4 -15 -3 -15 2 -30 6 -35 11 -4 4 -1 5 6
    1 6 -4 12 -3 12 2 0 5 7 9 15 9 8 0 12 -4 9 -8z"/>
        <path d="M1339 668 c-5 -19 -8 -50 -4 -46 7 7 15 48 9 48 -2 0 -4 -1 -5 -2z"/>
        <path d="M1580 640 c-6 -11 -16 -17 -22 -14 -7 4 -8 3 -4 -5 5 -8 15 -7 36 6
    16 9 27 20 24 25 -9 14 -23 9 -34 -12z"/>
        <path d="M1416 2012 c-3 -4 4 -9 15 -9 23 -2 25 3 4 10 -8 4 -16 3 -19 -1z"/>
        <path d="M1780 1816 c15 -15 39 -16 33 -1 -2 8 -13 13 -24 12 -12 -1 -15 -5
    -9 -11z"/>
        <path d="M1837 1768 c4 -7 8 -17 8 -23 0 -5 5 -10 10 -10 6 0 17 -4 25 -9 8
    -5 2 5 -14 22 -31 33 -43 41 -29 20z"/>
        <path d="M2302 1794 c10 -10 20 -16 22 -13 3 3 -5 11 -17 18 -21 13 -21 12 -5
    -5z"/>
        <path d="M599 1483 c-13 -16 -12 -17 4 -4 9 7 17 15 17 17 0 8 -8 3 -21 -13z"/>
        <path d="M589 1413 c-13 -16 -12 -17 4 -4 9 7 17 15 17 17 0 8 -8 3 -21 -13z"/>
        <path d="M2385 1130 c3 -5 11 -10 16 -10 6 0 7 5 4 10 -3 6 -11 10 -16 10 -6
    0 -7 -4 -4 -10z"/>
        <path d="M2390 1106 c0 -2 7 -7 16 -10 8 -3 12 -2 9 4 -6 10 -25 14 -25 6z"/>
        <path d="M216 1000 c5 -8 9 -18 9 -22 0 -3 3 -9 7 -13 3 -4 5 0 4 9 -1 9 -8
    22 -16 29 -10 10 -11 9 -4 -3z"/>
        <path d="M230 919 c0 -5 5 -7 10 -4 6 3 10 8 10 11 0 2 -4 4 -10 4 -5 0 -10
    -5 -10 -11z"/>
        <path d="M250 877 c14 -16 24 -30 23 -33 -2 -2 -1 -3 0 -1 2 1 11 -4 21 -12
    12 -10 14 -17 5 -27 -9 -11 -8 -14 0 -14 7 0 9 -5 5 -12 -4 -7 -3 -10 1 -5 14
    12 13 51 -1 72 -8 11 -14 15 -14 10 0 -5 -15 4 -32 21 l-33 29 25 -28z"/>
        <path d="M768 798 c12 -6 22 -15 22 -20 0 -5 5 -6 11 -2 12 7 -26 34 -46 33
    -5 0 0 -5 13 -11z"/>
        <path d="M2271 750 c-13 -11 -19 -20 -14 -20 6 0 18 9 28 20 23 25 17 25 -14
    0z"/>
        <path d="M2233 689 c-6 -6 -9 -18 -6 -27 5 -11 3 -13 -8 -7 -8 4 -11 5 -7 0
    11 -12 -11 -35 -27 -29 -7 3 -16 0 -20 -6 -8 -14 14 -42 27 -34 5 3 7 9 4 12
    -4 3 6 18 21 34 14 15 24 31 20 34 -4 4 -2 13 4 21 14 16 7 17 -8 2z m-46 -84
    c0 -8 -4 -12 -9 -9 -5 3 -6 10 -3 15 9 13 12 11 12 -6z"/>
        <path d="M688 359 c7 -9 22 -19 33 -22 17 -5 18 -3 8 9 -6 8 -14 12 -17 9 -3
    -3 -12 1 -21 8 -14 10 -14 10 -3 -4z"/>
        <path d="M850 276 c0 -2 8 -10 18 -17 15 -13 16 -12 3 4 -13 16 -21 21 -21 13z"/>
        <path d="M1345 200 c-3 -6 -10 -8 -14 -6 -4 3 -8 -2 -8 -10 0 -10 4 -11 11 -4
    12 12 29 14 22 2 -3 -5 1 -9 9 -9 19 0 19 11 1 26 -10 8 -16 9 -21 1z"/>
        <path d="M1130 198 c-11 -22 -10 -22 4 -4 9 11 16 14 16 8 0 -7 5 -12 11 -12
    13 0 7 22 -8 27 -7 3 -17 -6 -23 -19z"/>
        <path d="M1339 2508 c-6 -21 -5 -38 1 -38 5 0 8 9 7 20 -1 17 -5 26 -8 18z"/>
        <path d="M1195 2491 c-3 -5 8 -18 24 -27 17 -10 27 -22 24 -26 -3 -5 -13 -2
    -23 7 -9 8 -27 18 -40 20 -17 3 -20 2 -10 -10 7 -9 8 -15 0 -20 -5 -3 -10 -1
    -10 4 0 6 -4 11 -8 11 -4 0 -8 -8 -8 -18 0 -10 6 -19 13 -19 7 0 13 5 13 10 0
    5 6 4 14 -2 20 -17 63 -23 71 -11 5 8 11 7 21 -1 8 -6 17 -9 20 -6 3 3 -6 11
    -20 19 -14 7 -25 16 -25 21 -1 4 -1 12 -1 17 0 6 -3 9 -7 8 -15 -3 -43 14 -37
    23 3 5 3 9 0 9 -3 0 -7 -4 -11 -9z m30 -61 c4 -6 11 -7 17 -4 6 4 8 2 4 -4 -9
    -15 -59 1 -62 21 -2 13 1 15 16 7 11 -6 22 -15 25 -20z"/>
        <path d="M1393 2475 c0 -8 4 -15 9 -15 4 0 8 4 8 9 0 6 -4 12 -8 15 -5 3 -9
    -1 -9 -9z"/>
        <path d="M1017 2463 c-8 -7 11 -33 24 -33 5 0 9 8 9 18 0 14 -2 15 -10 2 -9
    -13 -14 -7 -11 13 1 9 -4 9 -12 0z"/>
        <path d="M1068 2458 c10 -13 10 -17 0 -21 -7 -3 -4 -5 7 -5 11 1 28 -3 38 -7
    12 -5 17 -2 17 10 0 10 -5 15 -14 12 -7 -3 -24 2 -37 11 -22 14 -23 14 -11 0z"/>
        <path d="M1647 2439 c7 -7 15 -10 18 -7 3 3 -2 9 -12 12 -14 6 -15 5 -6 -5z"/>
        <path d="M1628 2418 c5 -5 16 -8 23 -6 8 3 3 7 -10 11 -17 4 -21 3 -13 -5z"/>
        <path d="M1696 2417 c3 -10 9 -15 12 -12 3 3 0 11 -7 18 -10 9 -11 8 -5 -6z"/>
        <path d="M1380 2416 c0 -2 7 -9 15 -16 9 -7 15 -8 15 -2 0 5 -7 12 -15 16 -8
    3 -15 4 -15 2z"/>
        <path d="M836 2402 c-3 -5 1 -9 9 -9 8 0 12 4 9 9 -3 4 -7 8 -9 8 -2 0 -6 -4
    -9 -8z"/>
        <path d="M736 2362 c-3 -5 1 -9 9 -9 8 0 12 4 9 9 -3 4 -7 8 -9 8 -2 0 -6 -4
    -9 -8z"/>
        <path d="M1790 2364 c0 -2 9 -8 20 -14 15 -8 18 -8 14 3 -4 11 -34 21 -34 11z"/>
        <path d="M667 2339 c7 -7 15 -10 18 -7 3 3 -2 9 -12 12 -14 6 -15 5 -6 -5z"/>
        <path d="M1873 2343 c4 -6 2 -13 -5 -15 -8 -3 -6 -6 4 -10 17 -7 19 15 3 29
    -4 4 -5 3 -2 -4z"/>
        <path d="M734 2331 c4 -5 1 -12 -4 -14 -6 -3 -5 -4 2 -3 7 2 22 -4 33 -13 14
    -11 12 -7 -4 12 -24 26 -38 36 -27 18z"/>
        <path d="M1910 2292 c6 -13 14 -21 18 -18 3 4 -2 14 -12 24 -18 16 -18 16 -6
    -6z"/>
        <path d="M1935 2300 c3 -5 8 -10 11 -10 2 0 4 5 4 10 0 6 -5 10 -11 10 -5 0
    -7 -4 -4 -10z"/>
        <path d="M631 2273 c7 -12 15 -20 18 -17 3 2 -3 12 -13 22 -17 16 -18 16 -5
    -5z"/>
        <path d="M576 2258 c3 -4 12 -8 20 -8 8 0 14 4 14 8 0 4 -9 8 -19 8 -11 0 -17
    -4 -15 -8z"/>
        <path d="M1956 2253 c8 -9 12 -19 7 -22 -8 -6 -16 -31 -9 -31 2 0 11 12 21 26
    10 15 12 23 4 19 -8 -6 -11 -4 -7 6 4 10 -1 15 -13 16 -18 2 -18 0 -3 -14z"/>
        <path d="M2040 2240 c-8 -5 -10 -10 -5 -10 6 0 17 5 25 10 8 5 11 10 5 10 -5
    0 -17 -5 -25 -10z"/>
        <path d="M1989 2228 c-5 -16 -4 -50 2 -53 15 -10 35 6 36 28 l1 22 -10 -22
    c-6 -13 -15 -23 -20 -23 -5 0 -4 9 2 19 5 11 10 22 10 25 0 6 -19 9 -21 4z"/>
        <path d="M630 2200 c0 -5 5 -10 10 -10 6 0 10 5 10 10 0 6 -4 10 -10 10 -5 0
    -10 -4 -10 -10z"/>
        <path d="M478 2153 c7 -3 16 -2 19 1 4 3 -2 6 -13 5 -11 0 -14 -3 -6 -6z"/>
        <path d="M2100 2146 c0 -2 7 -6 15 -10 8 -3 15 -1 15 4 0 6 -7 10 -15 10 -8 0
    -15 -2 -15 -4z"/>
        <path d="M2045 2129 c-4 -6 -5 -12 -2 -15 2 -3 7 2 10 11 7 17 1 20 -8 4z"/>
        <path d="M439 2111 c13 -12 20 -21 16 -21 -4 0 -2 -7 5 -15 6 -8 8 -20 4 -26
    -4 -8 -3 -9 4 -5 7 4 12 5 12 2 0 -3 -9 -10 -19 -16 -14 -7 -22 -7 -27 2 -4 6
    -3 8 3 5 22 -13 21 22 0 40 l-22 18 19 -22 c20 -24 9 -32 -12 -11 -9 9 -12 9
    -12 0 0 -7 4 -12 8 -12 5 0 9 -7 10 -15 1 -8 3 -21 4 -29 1 -12 7 -11 26 5 14
    11 32 29 41 41 13 19 13 21 -2 15 -9 -3 -19 -1 -23 5 -4 6 -3 8 3 5 6 -4 16
    -1 22 7 9 10 8 16 -4 26 -9 7 -18 10 -22 6 -3 -3 -1 -6 6 -6 7 0 9 -5 6 -10
    -4 -6 -19 -2 -38 11 -32 21 -32 21 -8 0z"/>
        <path d="M2156 2093 c-6 -14 -5 -15 5 -6 7 7 10 15 7 18 -3 3 -9 -2 -12 -12z"/>
        <path d="M2175 2079 c-5 -8 -5 -11 0 -7 4 4 14 0 21 -10 11 -14 15 -15 26 -3
    11 12 11 13 0 6 -8 -4 -18 0 -26 11 -11 14 -14 15 -21 3z"/>
        <path d="M390 2040 c0 -5 5 -10 11 -10 5 0 7 5 4 10 -3 6 -8 10 -11 10 -2 0
    -4 -4 -4 -10z"/>
        <path d="M2238 1983 c7 -3 16 -2 19 1 4 3 -2 6 -13 5 -11 0 -14 -3 -6 -6z"/>
        <path d="M2190 1961 c0 -5 7 -11 14 -14 10 -4 13 -1 9 9 -6 15 -23 19 -23 5z"/>
        <path d="M2276 1958 c3 -5 10 -6 15 -3 13 9 11 12 -6 12 -8 0 -12 -4 -9 -9z"/>
        <path d="M307 1916 c-4 -10 -1 -13 9 -9 7 3 14 9 14 14 0 14 -17 10 -23 -5z"/>
        <path d="M320 1890 c-8 -5 -19 -6 -25 -2 -5 3 -4 -2 4 -11 8 -10 9 -17 3 -17
    -6 0 -16 8 -22 18 -11 16 -11 16 -6 0 3 -11 0 -18 -7 -18 -8 0 -7 -3 2 -9 15
    -10 64 9 76 28 8 14 -9 21 -25 11z m15 -10 c-3 -5 -12 -10 -18 -10 -7 0 -6 4
    3 10 19 12 23 12 15 0z"/>
        <path d="M2305 1880 c-3 -5 -2 -10 4 -10 5 0 13 5 16 10 3 6 2 10 -4 10 -5 0
    -13 -4 -16 -10z"/>
        <path d="M226 1842 c-3 -5 1 -9 9 -9 8 0 15 4 15 9 0 4 -4 8 -9 8 -6 0 -12 -4
    -15 -8z"/>
        <path d="M303 1838 c-4 -7 -17 -13 -28 -13 -13 0 -20 -7 -20 -20 1 -11 6 -19
    13 -17 7 1 12 -3 12 -10 0 -6 9 -1 20 12 11 12 17 27 14 31 -3 5 0 9 5 9 6 0
    11 5 11 10 0 14 -17 12 -27 -2z m-3 -32 c-15 -15 -37 -15 -37 0 0 8 10 13 23
    12 16 -2 20 -6 14 -12z"/>
        <path d="M2346 1838 c3 -5 10 -6 15 -3 13 9 11 12 -6 12 -8 0 -12 -4 -9 -9z"/>
        <path d="M2348 1813 c7 -3 16 -2 19 1 4 3 -2 6 -13 5 -11 0 -14 -3 -6 -6z"/>
        <path d="M213 1766 c0 -8 4 -13 9 -10 4 3 8 2 9 -3 0 -4 2 -16 4 -26 2 -13 -1
    -17 -11 -13 -9 3 -12 1 -9 -4 3 -5 8 -19 10 -31 3 -15 0 -19 -10 -15 -10 3
    -12 0 -8 -11 4 -9 2 -14 -3 -10 -6 3 -10 -3 -11 -12 -1 -14 5 -18 28 -17 33 1
    33 1 19 27 -8 14 -7 19 2 19 10 0 10 2 0 9 -8 4 -13 12 -12 17 3 17 22 34 31
    28 17 -10 9 5 -19 36 -18 19 -29 25 -29 16z m14 -129 c0 -8 -6 -14 -14 -14 -9
    0 -10 4 -2 14 6 7 12 13 14 13 1 0 2 -6 2 -13z"/>
        <path d="M2375 1740 c-3 -5 -4 -14 0 -19 3 -6 -3 -14 -12 -20 -10 -6 -12 -11
    -5 -11 6 0 12 -5 12 -11 0 -5 -6 -7 -12 -3 -10 6 -10 5 -1 -7 10 -12 9 -20 -2
    -36 -13 -18 -13 -22 0 -27 8 -3 17 -1 21 5 4 6 11 6 20 -2 12 -10 12 -14 2
    -20 -7 -5 -8 -9 -3 -9 6 0 16 4 24 9 10 6 6 13 -18 27 -30 18 -41 34 -22 34 6
    0 13 -4 16 -10 3 -5 12 -10 18 -10 7 0 4 5 -6 11 -9 6 -15 14 -12 20 4 5 1 9
    -5 9 -6 0 -8 5 -5 10 3 6 1 10 -5 10 -6 0 -8 5 -4 12 5 8 11 6 19 -6 12 -15
    13 -15 19 1 4 10 4 14 0 10 -11 -11 -33 13 -27 29 6 16 -3 19 -12 4z"/>
        <path d="M195 1690 c3 -5 8 -10 11 -10 2 0 4 5 4 10 0 6 -5 10 -11 10 -5 0 -7
    -4 -4 -10z"/>
        <path d="M176 1663 c-6 -14 -5 -15 5 -6 7 7 10 15 7 18 -3 3 -9 -2 -12 -12z"/>
        <path d="M2433 1630 c-1 -11 2 -20 7 -20 4 0 7 7 6 15 -3 23 -12 26 -13 5z"/>
        <path d="M129 1563 c-8 -9 -9 -14 -2 -10 6 4 13 1 16 -5 3 -7 4 -3 4 10 -1 26
    -1 26 -18 5z"/>
        <path d="M2455 1540 c-3 -5 -1 -10 4 -10 6 0 11 5 11 10 0 6 -2 10 -4 10 -3 0
    -8 -4 -11 -10z"/>
        <path d="M2422 1458 c-8 -8 -9 -15 -1 -25 15 -17 29 -17 29 2 0 8 -5 15 -11
    15 -5 0 -7 5 -4 10 8 14 2 13 -13 -2z"/>
        <path d="M2464 1430 c0 -18 19 -21 33 -5 5 4 2 5 -6 0 -10 -6 -13 -4 -9 7 4 8
    1 15 -6 15 -6 0 -12 -8 -12 -17z"/>
        <path d="M127 1398 c4 -7 7 -22 6 -33 -1 -16 -1 -17 3 -2 3 10 11 14 17 10 7
    -3 3 3 -7 15 -21 24 -32 29 -19 10z"/>
        <path d="M2470 1370 c0 -5 5 -10 11 -10 5 0 7 5 4 10 -3 6 -8 10 -11 10 -2 0
    -4 -4 -4 -10z"/>
        <path d="M115 1330 c-3 -6 1 -7 9 -4 18 7 21 14 7 14 -6 0 -13 -4 -16 -10z"/>
        <path d="M115 1279 c-1 -16 2 -29 6 -29 8 0 9 49 0 54 -3 2 -6 -9 -6 -25z"/>
        <path d="M2490 1299 c0 -5 5 -7 10 -4 6 3 10 8 10 11 0 2 -4 4 -10 4 -5 0 -10
    -5 -10 -11z"/>
        <path d="M190 1120 c0 -5 5 -10 11 -10 5 0 7 5 4 10 -3 6 -8 10 -11 10 -2 0
    -4 -4 -4 -10z"/>
        <path d="M2455 1120 c-4 -6 1 -7 11 -3 13 5 15 3 9 -7 -5 -9 -4 -11 3 -6 7 4
    12 11 12 17 0 12 -27 12 -35 -1z"/>
        <path d="M136 1097 c3 -10 9 -15 12 -12 3 3 0 11 -7 18 -10 9 -11 8 -5 -6z"/>
        <path d="M153 1008 c-2 -18 0 -20 7 -8 12 18 13 30 2 30 -4 0 -9 -10 -9 -22z"/>
        <path d="M2430 1020 c0 -5 5 -10 10 -10 6 0 10 5 10 10 0 6 -4 10 -10 10 -5 0
    -10 -4 -10 -10z"/>
        <path d="M170 905 c0 -5 5 -17 10 -25 5 -8 10 -10 10 -5 0 6 -5 17 -10 25 -5
    8 -10 11 -10 5z"/>
        <path d="M2416 893 c-6 -14 -5 -15 5 -6 7 7 10 15 7 18 -3 3 -9 -2 -12 -12z"/>
        <path d="M226 782 c-3 -5 1 -9 9 -9 8 0 12 4 9 9 -3 4 -7 8 -9 8 -2 0 -6 -4
    -9 -8z"/>
        <path d="M2355 769 c-4 -6 -5 -12 -2 -15 2 -3 7 2 10 11 7 17 1 20 -8 4z"/>
        <path d="M310 722 c0 -5 -10 -14 -22 -20 -13 -6 -18 -11 -12 -11 7 -1 22 8 35
    19 13 10 18 19 12 20 -7 0 -13 -4 -13 -8z"/>
        <path d="M375 681 c3 -6 -5 -20 -17 -32 l-23 -21 23 12 c22 11 23 10 18 -8 -4
    -13 -1 -22 9 -26 9 -3 13 -10 10 -16 -11 -18 5 -31 25 -20 13 7 21 7 26 -2 4
    -6 3 -8 -3 -5 -6 4 -17 -1 -24 -11 -12 -15 -12 -16 2 -5 9 7 19 10 23 6 4 -4
    -4 -13 -16 -20 -23 -13 -23 -13 4 -7 24 5 27 3 23 -15 -4 -23 5 -27 22 -10 8
    8 13 8 17 0 4 -6 3 -11 -1 -11 -5 0 -18 -7 -29 -16 -18 -15 -18 -15 3 -4 18 8
    24 7 32 -7 5 -10 13 -14 17 -10 12 12 14 37 3 37 -6 0 -8 4 -5 9 6 8 -27 53
    -38 52 -25 -3 -29 0 -19 10 9 9 4 17 -20 33 -18 12 -32 28 -32 36 -1 25 -16
    60 -26 60 -6 0 -8 -4 -4 -9z m22 -44 c-3 -7 5 -23 17 -36 11 -13 16 -21 9 -18
    -6 4 -13 4 -16 0 -2 -5 -3 -3 -1 3 1 6 -3 17 -9 23 -13 13 -17 52 -5 45 5 -3
    7 -11 5 -17z m109 -130 c5 -9 4 -9 -6 0 -7 6 -18 9 -25 7 -6 -3 -12 2 -12 10
    0 11 5 13 18 5 10 -5 21 -15 25 -22z m8 -33 c3 -8 2 -12 -4 -9 -6 3 -10 10
    -10 16 0 14 7 11 14 -7z"/>
        <path d="M307 639 c7 -7 15 -10 18 -7 3 3 -2 9 -12 12 -14 6 -15 5 -6 -5z"/>
        <path d="M2254 618 c-3 -5 0 -7 8 -6 7 2 12 -4 10 -12 -2 -8 0 -11 4 -7 14 13
    12 34 -3 34 -7 0 -16 -4 -19 -9z"/>
        <path d="M333 591 c0 -11 5 -18 9 -15 4 3 5 11 1 19 -7 21 -12 19 -10 -4z"/>
        <path d="M366 562 c-3 -5 1 -9 9 -9 8 0 12 4 9 9 -3 4 -7 8 -9 8 -2 0 -6 -4
    -9 -8z"/>
        <path d="M2113 563 c-9 -3 -10 -10 -3 -23 6 -11 9 -23 8 -29 -2 -5 2 -10 7
    -12 6 -2 17 -12 26 -23 13 -16 16 -17 16 -3 0 10 -3 15 -5 12 -6 -5 -31 26
    -32 39 0 5 8 2 17 -5 9 -8 14 -9 10 -3 -4 7 0 15 9 18 13 5 15 2 11 -14 -3
    -11 -1 -18 4 -14 15 9 10 30 -11 49 -13 12 -20 14 -20 5 0 -8 -4 -9 -12 -3 -7
    6 -19 8 -25 6z m46 -16 c9 4 13 3 10 -1 -13 -14 -46 -14 -46 0 0 9 4 11 10 5
    5 -5 17 -7 26 -4z"/>
        <path d="M2250 560 c0 -5 5 -10 11 -10 5 0 7 5 4 10 -3 6 -8 10 -11 10 -2 0
    -4 -4 -4 -10z"/>
        <path d="M2090 520 c0 -5 5 -10 10 -10 6 0 10 5 10 10 0 6 -4 10 -10 10 -5 0
    -10 -4 -10 -10z"/>
        <path d="M396 498 c3 -5 10 -6 15 -3 13 9 11 12 -6 12 -8 0 -12 -4 -9 -9z"/>
        <path d="M2077 485 c-9 -8 -14 -22 -11 -30 7 -17 24 -20 24 -5 0 6 -5 10 -10
    10 -6 0 -5 6 2 14 16 18 29 11 22 -12 -5 -13 -4 -14 4 -3 8 11 10 11 15 0 3
    -8 6 -9 6 -3 1 6 -7 19 -18 28 -17 15 -20 16 -34 1z"/>
        <path d="M464 442 c4 -3 14 -7 22 -8 9 -1 13 0 10 4 -4 3 -14 7 -22 8 -9 1
    -13 0 -10 -4z"/>
        <path d="M490 416 c0 -2 8 -10 18 -17 15 -13 16 -12 3 4 -13 16 -21 21 -21 13z"/>
        <path d="M2068 403 c6 -3 10 -9 6 -14 -8 -14 2 -11 14 4 8 10 6 13 -11 14 -12
    0 -16 -1 -9 -4z"/>
        <path d="M1871 336 c-7 -8 -21 -13 -31 -11 -20 4 -22 -26 -2 -33 7 -2 10 -8 6
    -13 -3 -5 -1 -9 5 -9 5 0 12 8 16 19 3 12 13 17 28 16 32 -3 32 -3 13 -24 -14
    -15 -15 -21 -4 -27 7 -4 10 -3 5 1 -4 5 0 16 9 26 15 16 14 20 -8 44 -21 23
    -26 24 -37 11z m23 -17 c-3 -5 -9 -7 -14 -4 -5 3 -13 -3 -19 -12 -6 -11 -11
    -13 -11 -5 0 7 -5 10 -12 6 -7 -4 -8 -3 -4 5 4 6 11 9 16 6 4 -3 13 2 20 10
    13 16 35 10 24 -6z"/>
        <path d="M620 325 c0 -2 6 -8 13 -14 10 -8 14 -7 14 2 0 8 -6 14 -14 14 -7 0
    -13 -1 -13 -2z"/>
        <path d="M1935 320 c3 -5 8 -10 11 -10 2 0 4 5 4 10 0 6 -5 10 -11 10 -5 0 -7
    -4 -4 -10z"/>
        <path d="M1975 320 c3 -5 8 -10 11 -10 2 0 4 5 4 10 0 6 -5 10 -11 10 -5 0 -7
    -4 -4 -10z"/>
        <path d="M675 290 c-4 -6 -11 -7 -17 -4 -7 4 -8 2 -4 -5 6 -9 11 -9 22 0 14
    11 18 19 10 19 -3 0 -8 -5 -11 -10z"/>
        <path d="M1723 270 c1 -21 10 -18 13 5 1 8 -2 15 -6 15 -5 0 -8 -9 -7 -20z"/>
        <path d="M726 262 c-3 -5 1 -9 9 -9 8 0 12 4 9 9 -3 4 -7 8 -9 8 -2 0 -6 -4
    -9 -8z"/>
        <path d="M1069 218 c0 -2 -2 -12 -4 -23 -2 -11 -12 -25 -21 -32 -10 -7 -15
    -15 -12 -18 3 -3 11 1 18 10 17 20 37 19 49 -2 6 -10 11 -14 11 -10 0 4 -7 19
    -16 32 -9 13 -13 29 -9 35 3 5 1 10 -4 10 -6 0 -11 -1 -12 -2z"/>
        <path d="M836 198 c3 -5 10 -6 15 -3 13 9 11 12 -6 12 -8 0 -12 -4 -9 -9z"/>
        <path d="M1515 200 c-6 -10 1 -14 18 -11 5 1 6 -9 3 -21 -3 -13 -3 -17 0 -10
    3 6 10 12 15 12 6 0 7 -5 4 -10 -4 -6 -1 -9 7 -8 7 2 12 -3 10 -10 -1 -8 2
    -11 7 -7 13 7 4 32 -15 39 -7 3 -12 11 -10 18 1 7 1 9 -2 5 -2 -4 -10 -3 -17
    3 -9 8 -15 8 -20 0z"/>
        <path d="M890 185 c0 -5 5 -17 10 -25 5 -8 10 -10 10 -5 0 6 -5 17 -10 25 -5
    8 -10 11 -10 5z"/>
        <path d="M981 161 c-10 -7 -7 -9 12 -8 14 1 23 5 20 10 -6 9 -15 9 -32 -2z"/>
        <path d="M1068 143 c7 -3 16 -2 19 1 4 3 -2 6 -13 5 -11 0 -14 -3 -6 -6z"/>
        <path d="M1380 133 c0 -6 8 -17 18 -24 16 -13 16 -13 2 6 -8 11 -16 22 -17 24
    -2 2 -3 0 -3 -6z"/>
        <path d="M1200 120 c-12 -7 -10 -9 8 -7 12 0 22 5 22 9 0 11 -12 10 -30 -2z"/>
        <path d="M1266 122 c-3 -5 1 -9 9 -9 8 0 12 4 9 9 -3 4 -7 8 -9 8 -2 0 -6 -4
    -9 -8z"/>
    </g>
</svg>
