<svg width="600" height="600" viewBox="0 0 600 600" fill="none" xmlns="http://www.w3.org/2000/svg">
<path d="M111.901 408.843L111.913 408.864L111.926 408.884C129.873 438.796 154.867 462.02 186.83 478.532C218.824 495.405 255.99 503.783 298.224 503.783C326.304 503.783 353.676 498.34 380.32 487.473C407.301 476.608 430.484 461.514 449.821 442.177C453.593 438.405 455.496 433.72 455.496 428.336C455.496 423.215 453.534 418.726 449.821 415.013C446.108 411.3 441.619 409.338 436.498 409.338C431.376 409.338 426.887 411.3 423.174 415.013L423.162 415.025L423.149 415.038C406.915 431.611 387.984 444.29 366.33 453.089C345.008 461.548 322.316 465.787 298.224 465.787C263.107 465.787 232.412 459.141 206.044 445.959C180.029 432.781 159.812 414.069 145.314 389.792C130.842 365.56 123.535 336.678 123.535 303.009C123.535 269.717 131.001 240.477 145.837 215.183C161.047 189.837 181.816 170.078 208.2 155.872C234.568 141.673 264.548 134.535 298.224 134.535C323.323 134.535 346.85 139.28 368.839 148.753L368.848 148.757L368.857 148.76C391.174 158.228 410.791 172.089 427.727 190.374C431.462 194.515 436.177 196.68 441.676 196.68C446.986 196.68 451.467 194.813 454.63 190.856C458.514 186.913 460.675 182.323 460.675 177.164C460.675 172.728 458.886 168.536 455.773 164.644L455.698 164.55L455.617 164.462C435.263 142.353 411.381 125.493 383.993 113.905C356.969 102.324 328.368 96.5382 298.224 96.5382C267.795 96.5382 239.569 101.611 213.582 111.795L213.574 111.798L213.567 111.801C187.963 121.973 165.486 136.366 146.166 154.981C126.822 173.273 111.88 195.08 101.344 220.363C90.7889 245.347 85.5382 272.911 85.5382 303.009C85.5382 343.228 94.2862 378.545 111.901 408.843Z" fill="url(#paint0_linear_11_116)" stroke="url(#paint1_linear_11_116)" stroke-width="6.92353"/>
<circle cx="102.028" cy="102.028" r="41.0283" fill="#7524ED"/>
<circle cx="498.028" cy="102.028" r="41.0283" fill="#7524ED"/>
<circle cx="102.028" cy="499.028" r="41.0283" fill="#7524ED"/>
<circle cx="498.028" cy="499.028" r="41.0283" fill="#7524ED"/>
<circle cx="101.543" cy="299.543" r="61.5425" fill="url(#paint2_radial_11_116)"/>
<circle cx="299.543" cy="498.543" r="61.5425" fill="url(#paint3_radial_11_116)"/>
<circle cx="497.543" cy="299.543" r="61.5425" fill="#7524ED"/>
<circle cx="299.543" cy="101.543" r="61.5425" fill="url(#paint4_radial_11_116)"/>
<defs>
<linearGradient id="paint0_linear_11_116" x1="539.795" y1="12.6003" x2="31.0432" y2="567.509" gradientUnits="userSpaceOnUse">
<stop stop-color="#7524ED"/>
<stop offset="1" stop-color="#1E1E1E"/>
</linearGradient>
<linearGradient id="paint1_linear_11_116" x1="19.7604" y1="572.637" x2="564.412" y2="38.2431" gradientUnits="userSpaceOnUse">
<stop stop-color="#1E1E1E"/>
<stop offset="1" stop-color="#7524ED"/>
</linearGradient>
<radialGradient id="paint2_radial_11_116" cx="0" cy="0" r="1" gradientUnits="userSpaceOnUse" gradientTransform="translate(78.9769 328.262) rotate(-21.1461) scale(116.575)">
<stop offset="0.35" stop-color="#412171"/>
<stop offset="1" stop-color="#7524ED"/>
</radialGradient>
<radialGradient id="paint3_radial_11_116" cx="0" cy="0" r="1" gradientUnits="userSpaceOnUse" gradientTransform="translate(276.977 527.262) rotate(-21.1461) scale(116.575)">
<stop offset="0.35" stop-color="#3F216C"/>
<stop offset="1" stop-color="#7524ED"/>
</radialGradient>
<radialGradient id="paint4_radial_11_116" cx="0" cy="0" r="1" gradientUnits="userSpaceOnUse" gradientTransform="translate(276.977 130.262) rotate(-21.1461) scale(116.575)">
<stop offset="0.4" stop-color="#5E23B6"/>
<stop offset="1" stop-color="#D9D9D9"/>
</radialGradient>
</defs>
</svg>
